<?xml version="1.0" encoding="UTF-8"?><svg id="_圖層_2" xmlns="http://www.w3.org/2000/svg" xmlns:xlink="http://www.w3.org/1999/xlink" viewBox="0 0 211 211"><defs><style>.cls-1{fill:#50595e;}.cls-2{fill:none;filter:url(#drop-shadow-2);stroke:#fff;stroke-miterlimit:10;stroke-width:2.83px;}.cls-3{fill:#fff;filter:url(#drop-shadow-1);opacity:.7;}</style><filter id="drop-shadow-1" filterUnits="userSpaceOnUse"><feOffset dx="1" dy="1"/><feGaussianBlur result="blur" stdDeviation="1"/><feFlood flood-color="#000" flood-opacity=".2"/><feComposite in2="blur" operator="in"/><feComposite in="SourceGraphic"/></filter><filter id="drop-shadow-2" filterUnits="userSpaceOnUse"><feOffset dx="1" dy="1"/><feGaussianBlur result="blur-2" stdDeviation="1"/><feFlood flood-color="#000" flood-opacity=".2"/><feComposite in2="blur-2" operator="in"/><feComposite in="SourceGraphic"/></filter></defs><g id="_資料"><circle class="cls-3" cx="104.27" cy="104.2" r="81.92"/><circle class="cls-2" cx="104.27" cy="104.2" r="100.61" transform="translate(-43.14 104.25) rotate(-45)"/><path class="cls-1" d="m64.72,100.14l3.15-4.25c2.01,1.96,4.48,3.47,7.54,3.47,3.43,0,5.75-1.69,5.75-4.7,0-3.33-1.96-5.39-9.32-5.39v-4.84c6.21,0,8.22-2.15,8.22-5.16,0-2.65-1.64-4.2-4.52-4.25-2.42.05-4.38,1.19-6.39,3.01l-3.42-4.11c2.92-2.56,6.17-4.16,10.14-4.16,6.53,0,10.96,3.2,10.96,9,0,3.65-2.06,6.3-5.66,7.72v.23c3.84,1.05,6.76,3.88,6.76,8.31,0,6.21-5.44,9.82-11.87,9.82-5.34,0-8.95-2.01-11.33-4.7Z"/><path class="cls-1" d="m111.85,77.62c-1.19-1.37-3.24-2.47-5.21-2.47-3.88,0-7.08,2.92-7.35,11.37,1.83-2.24,4.75-3.61,6.94-3.61,5.66,0,9.68,3.38,9.68,10.64s-4.84,11.28-10.6,11.28c-6.44,0-12.15-5.16-12.15-17.08,0-12.6,6.26-17.99,13.06-17.99,4.11,0,7.12,1.74,9.18,3.84l-3.56,4.02Zm-2.1,15.94c0-4.02-1.87-5.89-4.79-5.89-1.83,0-3.84.96-5.53,3.56.64,6.17,2.92,8.54,5.75,8.54,2.51,0,4.57-2.1,4.57-6.21Z"/><path class="cls-1" d="m120.25,87.17c0-11.69,4.57-17.4,11.46-17.4s11.42,5.75,11.42,17.4-4.57,17.67-11.42,17.67-11.46-6.03-11.46-17.67Zm16.53,0c0-9.45-2.19-12.19-5.07-12.19s-5.12,2.74-5.12,12.19,2.19,12.42,5.12,12.42,5.07-2.92,5.07-12.42Z"/><path class="cls-1" d="m100.58,139.72c-1.4.72-2.81,1.44-4.14,2.05,1.4,1.01,3.06,1.84,5,2.34-.83.79-1.98,2.23-2.52,3.28-4.79-1.62-7.92-5-9.75-9.61-1.04.9-2.2,1.73-3.49,2.48v3.1l5.08-.97c-.11.94-.11,2.34-.04,3.13-6.66,1.44-7.85,1.76-8.53,2.2-.22-.83-.86-2.2-1.37-2.88.65-.29,1.44-1.01,1.44-2.45v-.32c-1.01.43-1.98.76-2.95,1.08-.4-.61-1.04-1.4-1.66-2.09l.04.25c-3.31.97-6.84,1.87-9.75,2.66l-.72-3.89c1.04-.22,2.2-.5,3.53-.83v-8.85h-2.81v-3.71h2.81v-6.69h-3.06v-3.74h9.75v3.74h-2.95v6.69h2.63v3.71h-2.63v7.96l2.7-.72.32,2.45c2.56-.68,5.22-1.69,7.38-2.92h-4.14v-7.88h17.93v7.88h-6.01c.4.9.94,1.73,1.55,2.45,1.33-.76,2.66-1.69,3.56-2.41l2.81,2.52Zm.11-11.7h-22.03v-3.38h22.03v3.38Zm-1.15-4.54h-19.62v-8.17h19.62v8.17Zm-13.89-5.29h-2.27v2.41h2.27v-2.41Zm-1.12,16.02h10.11v-2.02h-10.11v2.02Zm6.23-16.02h-2.3v2.41h2.3v-2.41Zm5.11,0h-2.38v2.41h2.38v-2.41Z"/><path class="cls-1" d="m123.27,142.02c-2.41,2.05-6.26,4.07-9.39,5.29-.68-.83-2.2-2.3-3.13-2.99,3.17-.9,6.66-2.34,8.6-3.89l3.92,1.58Zm20.12-11.09h-31.75v-3.38h13.64c-.18-.36-.4-.68-.61-.97l1.66-.5h-10.98v-10.8h24.44v10.8h-10.83c.32.47.65.97.9,1.48h13.53v3.38Zm-13.57,9.14v4.03c0,1.84-.43,2.66-1.84,3.13-1.4.47-3.28.47-5.8.47-.22-1.04-.68-2.34-1.19-3.28,1.48.07,3.38.07,3.85.04.5-.04.68-.14.68-.54v-3.85h-9.32v-7.85h23.04v7.85h-9.43Zm-10.37-20.7h16.05v-1.48h-16.05v1.48Zm0,4.03h16.05v-1.55h-16.05v1.55Zm.86,13.75h14.61v-2.02h-14.61v2.02Zm13.82,3.38c3.02,1.01,7.2,2.81,9.43,4.18l-2.99,2.63c-2.02-1.33-6.12-3.28-9.21-4.5l2.77-2.3Z"/></g></svg>