<?xml version="1.0" encoding="UTF-8"?><svg id="_圖層_2" xmlns="http://www.w3.org/2000/svg" xmlns:xlink="http://www.w3.org/1999/xlink" viewBox="0 0 211 211"><defs><style>.cls-1{fill:#50595e;}.cls-2{fill:none;filter:url(#drop-shadow-2);stroke:#fff;stroke-miterlimit:10;stroke-width:2.83px;}.cls-3{fill:#fff;filter:url(#drop-shadow-1);opacity:.7;}</style><filter id="drop-shadow-1" filterUnits="userSpaceOnUse"><feOffset dx="1" dy="1"/><feGaussianBlur result="blur" stdDeviation="1"/><feFlood flood-color="#000" flood-opacity=".2"/><feComposite in2="blur" operator="in"/><feComposite in="SourceGraphic"/></filter><filter id="drop-shadow-2" filterUnits="userSpaceOnUse"><feOffset dx="1" dy="1"/><feGaussianBlur result="blur-2" stdDeviation="1"/><feFlood flood-color="#000" flood-opacity=".2"/><feComposite in2="blur-2" operator="in"/><feComposite in="SourceGraphic"/></filter></defs><g id="_資料"><circle class="cls-3" cx="104.81" cy="104.2" r="81.92"/><circle class="cls-2" cx="104.81" cy="104.2" r="100.61" transform="translate(-42.99 104.63) rotate(-45)"/><path class="cls-1" d="m54.61,84.03h11.19c6.94,0,12.24,2.01,12.24,8.31,0,3.11-1.74,6.3-4.61,7.31v.23c3.65.87,6.35,3.43,6.35,7.99,0,6.8-5.66,9.96-13.11,9.96h-12.06v-33.8Zm10.69,13.75c4.29,0,6.17-1.74,6.17-4.43,0-2.97-2.01-4.16-6.07-4.16h-4.02v8.59h3.93Zm.78,14.84c4.61,0,7.12-1.64,7.12-5.16,0-3.29-2.47-4.66-7.12-4.66h-4.7v9.82h4.7Z"/><path class="cls-1" d="m84.34,110.88c0-5.48,4.43-8.36,14.71-9.45-.09-2.51-1.19-4.43-4.34-4.43-2.38,0-4.66,1.05-7.03,2.42l-2.42-4.43c3.01-1.87,6.67-3.38,10.69-3.38,6.48,0,9.82,3.88,9.82,11.28v14.93h-5.48l-.5-2.74h-.14c-2.24,1.92-4.8,3.38-7.72,3.38-4.57,0-7.58-3.24-7.58-7.58Zm14.71-.18v-5.16c-6.21.82-8.31,2.51-8.31,4.8,0,2.01,1.42,2.88,3.38,2.88s3.33-.91,4.93-2.51Z"/><path class="cls-1" d="m111.47,105.08c0-8.54,6.12-13.47,13.06-13.47,3.15,0,5.57,1.23,7.44,2.83l-3.2,4.34c-1.28-1.1-2.47-1.69-3.93-1.69-3.88,0-6.53,3.15-6.53,7.99s2.65,7.9,6.35,7.9c1.83,0,3.56-.87,4.98-2.06l2.65,4.43c-2.42,2.15-5.53,3.11-8.36,3.11-7.08,0-12.47-4.93-12.47-13.38Z"/><path class="cls-1" d="m137.59,81.38h6.53v21.92h.18l8.86-11.05h7.31l-8.86,10.46,9.68,15.12h-7.26l-6.21-10.6-3.7,4.2v6.39h-6.53v-36.44Z"/></g></svg>