<?xml version="1.0" encoding="UTF-8"?><svg id="_圖層_2" xmlns="http://www.w3.org/2000/svg" viewBox="0 0 157.67 84.34"><defs><style>.cls-1{fill:#7f7f7f;}.cls-2{fill:#c3e6ff;}.cls-3{opacity:.3;}.cls-4{opacity:.5;}</style></defs><g id="_資料"><path class="cls-1" d="m26.14,64.98c-14.42,0-26.14-11.73-26.14-26.14S11.73,12.69,26.14,12.69s26.14,11.73,26.14,26.14-11.73,26.14-26.14,26.14Zm0-50.87C12.51,14.11,1.42,25.2,1.42,38.84s11.09,24.73,24.73,24.73,24.73-11.09,24.73-24.73-11.09-24.73-24.73-24.73Z"/><path class="cls-1" d="m77.01,64.98c-14.42,0-26.14-11.73-26.14-26.14s11.73-26.14,26.14-26.14,26.14,11.73,26.14,26.14-11.73,26.14-26.14,26.14Zm0-50.87c-13.63,0-24.73,11.09-24.73,24.73s11.09,24.73,24.73,24.73,24.73-11.09,24.73-24.73-11.09-24.73-24.73-24.73Z"/><g class="cls-4"><circle class="cls-2" cx="26.14" cy="38.84" r="25.43"/><path class="cls-1" d="m26.14,64.98c-14.42,0-26.14-11.73-26.14-26.14S11.73,12.69,26.14,12.69s26.14,11.73,26.14,26.14-11.73,26.14-26.14,26.14Zm0-50.87C12.51,14.11,1.42,25.2,1.42,38.84s11.09,24.73,24.73,24.73,24.73-11.09,24.73-24.73-11.09-24.73-24.73-24.73Z"/></g><g class="cls-4"><circle class="cls-2" cx="77.01" cy="38.84" r="25.43"/><path class="cls-1" d="m77.01,64.98c-14.42,0-26.14-11.73-26.14-26.14s11.73-26.14,26.14-26.14,26.14,11.73,26.14,26.14-11.73,26.14-26.14,26.14Zm0-50.87c-13.63,0-24.73,11.09-24.73,24.73s11.09,24.73,24.73,24.73,24.73-11.09,24.73-24.73-11.09-24.73-24.73-24.73Z"/></g><g class="cls-4"><path d="m21.38,43.92c-.51-.75-1.35-1.86-2.19-2.88v11.64h-3.51v-11.01c-1.14,1.02-2.25,1.95-3.42,2.64-.24-.99-.93-2.97-1.35-3.63,3-1.65,5.91-4.59,7.71-7.77h-6.84v-3.21h5.1c-.57-1.05-1.41-2.31-2.19-3.24l2.73-1.68c1.02,1.14,2.16,2.67,2.67,3.78l-1.68,1.14h2.13l.63-.15,1.89,1.38c-.87,2.19-2.07,4.32-3.45,6.27,1.2,1.05,3.39,3.18,3.96,3.78l-2.19,2.94Zm14.7,5.55c.51,0,.6-.39.69-3.39.6.54,2.01,1.08,2.91,1.32-.3,4.08-1.14,5.16-3.18,5.16h-1.98c-2.64,0-3.21-1.02-3.21-3.99v-5.88h-1.68c-.42,4.89-1.59,8.19-7.35,10.05-.3-.81-1.17-2.01-1.77-2.61,4.8-1.38,5.61-3.75,5.94-7.44h-1.98v-16.8h13.29v16.8h-3.15v5.88c0,.81.06.9.48.9h.99Zm-8.37-18.81h6.63v-1.95h-6.63v1.95Zm0,4.56h6.63v-1.92h-6.63v1.92Zm0,4.62h6.63v-1.95h-6.63v1.95Z"/><path d="m71.63,47.43c1.8-.18,3.63-.39,5.46-.6l.09,3.12c-5.1.72-10.53,1.35-14.43,1.86l-.42-3.48c1.62-.15,3.63-.3,5.85-.54v-3.3h-4.86v-3.21h4.86v-2.43h-4.92v-12.78h13.32v12.78h-4.95v2.43h4.98v3.21h-4.98v2.94Zm-5.46-16.29h2.25v-2.22h-2.25v2.22Zm0,4.89h2.25v-2.25h-2.25v2.25Zm7.38-7.11h-2.16v2.22h2.16v-2.22Zm0,4.86h-2.16v2.25h2.16v-2.25Zm17.1,2.52c-.54,2.67-1.32,5.67-2.01,7.59l-2.88-.6c.3-1.05.63-2.52.93-4.02h-1.95v9.57c0,1.71-.33,2.7-1.5,3.24-1.14.57-2.76.6-4.92.6-.12-1.02-.6-2.52-1.05-3.51,1.35.09,2.88.09,3.3.06.45,0,.6-.09.6-.48v-9.48h-3.96v-3.39h6.3c-1.65-1.2-3.69-2.4-5.49-3.27l2.19-2.19c.81.36,1.68.78,2.55,1.26.66-.72,1.38-1.56,1.98-2.4h-7.2v-3.21h9.57l.78-.18,2.25,1.62c-1.2,1.95-2.94,4.08-4.74,5.76.9.63,1.77,1.2,2.43,1.74l-.78.87h.69l.51-.09,2.4.51Z"/></g><path class="cls-1" d="m30.43,14.52c-.31,0-.59-.2-.68-.52-.11-.38.11-.77.49-.87L75.81.33c2.91-.82,5.97-.08,8.2,1.96l5.52,5.07c.29.27.31.71.04,1-.26.29-.71.31-1,.04l-5.52-5.07c-1.86-1.71-4.42-2.32-6.86-1.64L30.62,14.49c-.06.02-.13.03-.19.03Z"/><path class="cls-1" d="m98.35,24.06c-.31,0-.59-.2-.68-.52-.11-.38.11-.77.49-.87l45.57-12.8c2.91-.82,5.98-.08,8.2,1.96l5.52,5.07c.29.27.31.71.04,1s-.71.31-1,.04l-5.52-5.07c-1.86-1.71-4.42-2.32-6.86-1.64l-45.57,12.8c-.06.02-.13.03-.19.03Z"/><g class="cls-3"><path d="m144.84,81.53c0-1.56-24.98-2.82-55.8-2.82s-55.79,1.26-55.79,2.82,24.98,2.82,55.79,2.82,55.8-1.26,55.8-2.82Z"/></g></g></svg>