<?xml version="1.0" encoding="UTF-8"?><svg id="_圖層_2" xmlns="http://www.w3.org/2000/svg" viewBox="0 0 1931.28 138.27"><defs><style>.cls-1{fill:none;stroke:#715398;stroke-miterlimit:10;stroke-width:8.5px;}</style></defs><g id="_桃園捷運_紫_"><path class="cls-1" d="M.11,30.97l74.45,1.96s113.54,2.44,183.1,0c69.56-2.44,113.97-5.17,147.2-8.95,33.23-3.78,78.6-9.71,94.97-12.43S543.7,.04,571.18,6.68s255.9,86.93,255.9,86.93c0,0,84.85,28.63,86.63,29.19s34.03,12.35,69.09,11.14,357-10.98,357-10.98l91.1-16.2c9.33-1.66,18.77-2.64,28.25-2.92,52.68-1.59,235.44-6.9,278.55-5.2,50.52,1.99,138.9,6.18,192.86-3.22"/></g></svg>