<?xml version="1.0" encoding="UTF-8"?><svg id="_圖層_2" xmlns="http://www.w3.org/2000/svg" viewBox="0 0 522.66 275.74"><defs><style>.cls-1{fill:#fff;}.cls-2{fill:#cc3639;}.cls-3{opacity:0;}</style></defs><g id="_主視覺"><g><g><rect class="cls-2" y="12.37" width="41.39" height="123.67" rx="8.02" ry="8.02"/><g><path class="cls-1" d="M14.71,51.13c-.58,2.94-1.46,6.02-2.56,8.44,.52,.29,1.13,.74,2.01,1.26,2.2,1.33,5.24,1.52,9.03,1.52s9.51-.32,13.1-.84c-.45,1.04-1.1,2.91-1.13,3.95-2.65,.16-8.38,.39-12.16,.39-4.3,0-7.02-.36-9.35-1.71-1.36-.74-2.49-1.81-3.17-1.81-.74,0-1.91,2.2-2.69,4.04l-2.55-3.66c1.1-1.33,2.3-2.43,3.36-3.07,.74-1.62,1.39-3.62,1.88-5.63H6.4c.74-1.91,1.62-4.5,2.33-7.02h-2.91v-3.4h7.57c-.68,2.26-1.46,4.82-2.2,7.08h1.29l.58-.13,1.65,.58Zm-5.47-8.48c-.36-1.49-1.2-3.82-1.75-5.6l3.4-1c.62,1.71,1.42,3.88,1.88,5.34l-3.53,1.26Zm9.32,2.36h-4.11v-2.78h8.51v-1.65h-6.41v-2.65h6.41v-1.91h3.82v1.91h6.66v2.65h-6.66v1.65h8.6v2.78h-4.43l.78,.19c-.52,.94-1,1.75-1.46,2.43h4.76v2.72h-8.25v1.46h7.08v2.65h-7.08v1.55h8.31v2.78h-8.31v2.59h-3.82v-2.59H14.91v-2.78h8.05v-1.55h-6.79v-2.65h6.79v-1.46H14.94v-2.72h4.21c-.19-.81-.58-1.75-1-2.52l.42-.1Zm8.22,2.43c.32-.71,.71-1.62,.97-2.43h-5.95c.45,.84,.81,1.75,.97,2.43l-.87,.19h5.63l-.74-.19Z"/><path class="cls-1" d="M35.41,85.94h-5.4c1,.97,2.01,2.07,2.59,2.88l-2.59,2.1c-.65-1.04-2.07-2.72-3.27-3.91l1.39-1.07h-2.85c-.71,1.39-1.49,2.65-2.33,3.66h.39v2.59h9.87v3.36h-9.87v3.2h8.67v3.36h-8.67v3.46h11.58v3.46H6.53v-3.46h12.94v-3.46H10.57v-3.36h8.9v-3.2h-7.08c-.71,1-1.39,1.88-2.1,2.62-.74-.65-2.3-1.71-3.2-2.26,1.81-1.65,3.53-4.27,4.46-6.76l3.3,.91c-.62-.94-1.58-2.07-2.43-2.88l1.78-1.33h-2.68c-.84,1.55-1.81,2.94-2.78,4.04-.58-.71-2.01-2.04-2.85-2.62,1.91-1.91,3.53-4.88,4.5-7.8l3.62,1c-.26,.71-.55,1.42-.87,2.17h7.38v3.2h-5.01c.91,.91,1.88,1.97,2.36,2.78l-2.62,2.04-.1-.13c-.23,.55-.49,1.1-.74,1.65h5.08v-2.59h3.07c-.81-.61-2.2-1.49-3.04-1.94,1.91-1.94,3.4-5.08,4.24-8.18l3.79,.87c-.23,.78-.49,1.58-.81,2.39h8.7v3.2Z"/></g></g><g class="cls-3"><path class="cls-1" d="M378.88,108.41c-1.07-5.29-1.95-9.63-2.87-14.14,2.15-4.4,2.85-4.43,7.62-2.88,8.24,2.69,16.58,5.07,24.93,7.41,5.26,1.48,9.71,7.38,9.24,12.7-.36,4.12-2.42,6.63-6.45,7.65-1.55,.39-3.17,.56-4.77,.71-1.23,.12-2.53-.15-3.72,.11-7.87,1.75-13.61-2.27-19.11-6.94-1.89-1.6-3.6-3.41-4.88-4.62Z"/><path class="cls-1" d="M387.35,150.25c.7-3.52,1.25-7.07,2.14-10.53,.54-2.09,1.79-3.81,4.24-4.21,3.06-.5,4.21,.36,5,3.42,.31,1.21,1.02,2.52,1.95,3.34,4,3.54,8.03,7.06,12.28,10.29,2.47,1.87,2.84,3.99,2.49,6.81-1.29,10.39-13.15,11.31-19.46,7.24-4.31-2.77-9.09-11.1-8.63-16.35Z"/><path class="cls-1" d="M511.8,89.78c-4.17,.26-8.04,2.09-11.97,3.5-3.5,1.26-9.92,3.34-12.76,.16-2.66-2.97-1.5-10.25-1.43-13.84,.09-4.37,1.98-8.81,4.93-12.02,3.84-4.18,7.12-2.99,11.52-4.83,.58-.24,1.01-.74,1.43-1.2,4.35-4.71,10.81-6.66,15.13-11.49,7.5-8.39,3.94-21.99-6.64-25.79-5.05-1.81-9.83-4.6-15.06-6.13-2.41-.7-5.68-1.73-8.19-.88-2.97,1.01-3.91,4.08-5.9,6.28-2.71,3-5.64,5.8-8.73,8.4-5.53,4.66-11.6,8.67-18,12.03-3.81,2-7.71,3.87-11.74,5.39-3.37,1.28-6.84,1.54-9.67,3.97-2.56-4.77-4.41-7.94-9.56-10.54-2.99-1.51-6-2.97-9-4.45-7.03-3.47-14.52-5.03-22.31-5.18-5.8-.12-7.09,1.64-5.43,7.35,2.32,8,7.24,14.34,13.16,19.98,3.77,3.6,8.25,5.43,13.57,4.86,1.73-.18,3.48-.23,5.22-.17,5.17,.16,9.5-1.47,12.71-5.67,.11-.14,.44-.1,.82-.18,1.09,4.18,3.32,7.84,3.69,12.51,.38,4.83,3.31,9.34,7.51,12.45,2.86,2.12,6.04,2.9,9.46,1.39,5.4-2.38,10.59-5.21,16.02-7.52,6.13-2.62,7.3-1.24,8.12,5.24,.98,7.76,1.23,12.53-7.14,14.71-10.78,2.8-21.83,4.55-32.95,5.18-2.44,.14-5.29,.45-6.55,2.54-1.58,2.61,.78,6.15,3.71,6.97,2.94,.82,6.03-.19,8.94-1.12,10.28-3.27,22.23-6.96,33.08-6.95,.15,3.24-1.18,6.68-.59,10.18,.18,1.1,2.1,8.86,3.86,8.45-4.96,1.17-10.06,1.72-15.07,2.62-.95,.17-12.14,1.64-12.15,2.64,.22,8.22,.43,16.45,.65,24.67,.08,3.18,.18,6.42,1.32,9.39,1.14,2.96,3.55,5.64,6.68,6.21,3.13,.56,6.74-1.68,6.87-4.86,12.46,7.65,27.86,10.35,42.17,7.39,3.53-.73,7.75-2.74,7.63-6.35-.03-.84-.31-1.64-.57-2.44-2.19-6.51-3.8-13.21-4.83-20-.52-3.46-.89-6.94-1.1-10.42-.19-3.06,.2-6.35-.21-9.35-.32-2.35-1.64-3.15-3.85-3.42-5.06-.63-10.24-.22-15.14,1.19-.77,.22-1.62,.47-2.37,.18-1.22-.48-1.51-2.03-1.62-3.34-.32-3.98-.54-7.96-.66-11.95-.03-1.02,0-2.16,.73-2.87,.61-.59,1.53-.7,2.38-.77,6.17-.52,12.33-1.03,18.5-1.55,3.48-.29,7.03-.6,10.27-1.9,.63-.25,1.3-.59,1.6-1.2,.31-.63,.15-1.38-.11-2.03-1.55-3.88-6.21-5.68-10.38-5.42Zm-15.93,35.64c2.35-1.26,4.15,.13,4.1,2.82-.09,5.08-.47,10.17-.18,15.23,.2,3.53,1.28,7.01,2,10.5,.22,1.08,.58,2.12,1.06,3.83-11.04,.37-21.59,.72-32.51,1.08-1.14-.54-1.6-1.75-1.74-3.39-.63-6.99-1.43-13.97-2.13-20.96-.11-1.08-.02-2.18-.02-3.73,3.68-.4,7.2-.79,10.72-1.15,6.4-.65,12.83-1.08,18.71-4.22Z"/></g><g class="cls-3"><path class="cls-1" d="M370.42,188.84c-1.77-3.14-4.37-5.99-6.99-8.74-1.42-1.49-2.6-3.3-4.23-4.58-1.77-1.38-3.72-1.25-5.58-2.24-1.55-.82-2.86-2.05-4.34-2.98-1.79-1.11-3.62-1.75-5.22-.47-1.16,.94-1.23,7.85-1.48,9.48-.24,1.53-.61,3.17-.36,4.72,.33,2.1,1.65,3.84,2.25,5.84,.54,1.84,.49,3.76,1.34,5.52,1.59,3.29,3.94,6.14,5.65,9.36,.59,1.1,2.23,1.89,3.54,2.3,2.04,.64,4.21,1,6.35,1.16,5.7,.44,9.21-1.7,10.75-7.1,1.33-4.68,.37-8.68-1.68-12.3Z"/><path class="cls-1" d="M281.3,188.29c1.06-3.45,2.99-6.79,4.96-10.03,1.07-1.76,1.83-3.78,3.16-5.37,1.44-1.73,3.37-2.02,4.98-3.38,1.34-1.13,2.35-2.62,3.61-3.84,1.51-1.47,3.17-2.49,5-1.57,1.34,.67,2.88,7.41,3.47,8.94,.56,1.44,1.27,2.96,1.36,4.54,.12,2.12-.8,4.1-.95,6.19-.14,1.91,.33,3.78-.13,5.68-.85,3.55-2.54,6.84-3.52,10.36-.34,1.2-1.77,2.32-2.97,3.01-1.86,1.06-3.9,1.88-5.96,2.49-5.47,1.64-9.37,.3-12.02-4.64-2.3-4.28-2.21-8.4-.99-12.37Z"/><path class="cls-1" d="M216.31,181.76c2.34-2.75,5.43-5.05,8.52-7.25,1.68-1.19,3.18-2.75,5.02-3.69,2-1.02,3.89-.52,5.91-1.13,1.68-.51,3.19-1.47,4.83-2.1,1.97-.75,3.89-1.03,5.21,.53,.96,1.15-.29,7.94-.35,9.59-.06,1.55,0,3.23-.54,4.71-.73,2-2.35,3.45-3.32,5.31-.88,1.7-1.19,3.6-2.36,5.17-2.19,2.93-5.04,5.28-7.33,8.12-.79,.97-2.55,1.43-3.92,1.59-2.13,.24-4.33,.18-6.46-.06-5.68-.66-8.72-3.42-9.2-9.02-.41-4.84,1.29-8.59,3.98-11.76Z"/><path class="cls-1" d="M245.55,103.04c1.89-3.08,4.58-5.83,7.3-8.48,1.48-1.44,2.71-3.2,4.39-4.42,1.82-1.32,3.77-1.11,5.66-2.03,1.58-.77,2.93-1.95,4.45-2.82,1.83-1.05,3.69-1.62,5.23-.28,1.13,.98,.94,7.89,1.13,9.53,.18,1.54,.49,3.19,.19,4.73-.41,2.09-1.79,3.77-2.46,5.76-.61,1.81-.62,3.74-1.54,5.47-1.71,3.23-4.16,6-5.99,9.15-.63,1.08-2.29,1.81-3.62,2.17-2.07,.56-4.25,.85-6.39,.93-5.71,.23-9.15-2.04-10.48-7.49-1.16-4.72-.05-8.69,2.12-12.23Z"/><path class="cls-1" d="M284.17,117.13c.6,1.81,.92,3.72,.9,5.63,0,.82-.07,1.67,.23,2.44,.53,1.33,1.98,2.01,3.31,2.55,3.72,1.54,7.62,3.11,11.71,2.21,1.29-.28,2.51-.88,3.51-1.74,3.56-3.05,2.28-6.47,1.69-9.76-.79-4.44-.55-9.65,1.2-13.84,.7-1.69,2.14-4.78,4.28-4.4,2.13,.38,3.67,4.28,4.66,5.87,4.23,6.88,13.25,10.04,21.02,8.27,4.58-1.04,7.01-5.91,4.93-10.13-1.44-2.92-3.81-5.48-6.53-7.31-4.83-3.25-10.64-4.64-16.31-5.97-2.47-.58-5.06-1.16-7.51-.49-1.45,.39-2.9,1.39-3.63,2.72-.48,.87-.4,1.95-.94,2.83-.11,.18-.29,.37-.49,.32-.23-.06-.27-.36-.26-.6,.03-.91,.16-1.95-.02-2.86-.3-1.47-.57-2.89-.57-4.41,0-2.83,.68-5.66,2.05-8.14,.55-1,1.26-1.99,2.3-2.47,1.04-.48,2.24-.37,3.38-.26,3.39,.35,6.79,.69,10.18,1.04,2.78,.28,5.65,.56,8.31-.28,3.53-1.11,6.64-4.72,4.53-8.75-.87-1.66-2.47-2.85-4.25-3.43-3.91-1.28-7.88-.05-11.76,.8-2.4,.52-4.98,.89-7.35,.45-1.47-.27-2.5-1.6-2.44-3.09,.26-6.28-3.23-12.54-8.33-16.35-5.69-4.24-13.04-5.76-20.14-5.57-.61,.02-1.26,.06-1.74,.43-.53,.41-.71,1.12-.81,1.79-1.09,7.09,3.15,14.67,.36,21.29-.24,.58-.55,1.15-.97,1.61-.13,.15-.28,.28-.44,.41-.65,.5-1.47,.72-2.27,.91-5.29,1.23-10.81,1.41-16.17,.54-2.19-.36-4.48-.88-6.53,.26-1.34,.74-2.15,2.3-1.62,3.74,1.05,2.83,5.74,1.81,7.52,4.2h15.84c3.53,0,6.47,2.73,6.72,6.25l2.42,33.29Z"/><path class="cls-1" d="M361.92,145.56c-2.44-3.65-6.42-5.63-10.5-5.33-1.88,.14-3.78,.03-6.31,.02-.18,.02-.37,.04-.55,.05l-5.12,1.02c-1.09,.22-2.2-.27-2.8-1.21-.54-.86-1.02-1.62-1.51-2.39-2.08-3.3-4.01-6.7-6.32-9.84-.82-1.11-2.53-2.17-3.84-2.17-1.93,0-2,1.99-2.24,3.62-.52,3.52-1.17,7.02-1.81,10.67-.15,.88-.74,1.64-1.56,2-.63,.28-1.25,.53-1.89,.67-6.57,1.42-13.07,1.32-18.97-.99-.84-.33-1.78-.27-2.53,.23-1.78,1.18-2.84,2.46-2.62,4.45,.08,.73,.48,1.43,1.09,1.84,3.12,2.09,6.96,2.49,10.33,3.37h7.67c3.1,0,5.65,2.46,5.75,5.56l1.11,31.93c1.03,8.88,1.94,17.78,3.17,26.64,.34,2.48,1.71,4.17,3.69,5.04,8.3,6.29,13.7,.03,13.7,.03-.43-7.55-3.77-30.67-3.77-30.67-.01-.38-.04-.76-.07-1.12-.84-8.59-1.85-17.17-2.53-25.78-.17-2.12,.44-4.31,.84-6.79,.08-.5,.29-.99,.62-1.37,3.86-4.43,8.57-6.28,14.6-4.06,.7,.26,1.88,.54,2.63,.54,3.18-.01,6.22-.46,8.85-2.03,1.34-.79,1.74-2.63,.87-3.92Z"/><path class="cls-1" d="M292.2,148.32c-.74-1.45-2.19-1.94-3.56-2.58-3.81-1.77-7.69-.46-11.53-.37-5.66,.14-5.71,.08-6.24-5.41-.27-2.81-.92-5.71-4.02-6.58-2.51-.71-5.25-1.33-7.46,.83-.59,.58-.84,1.42-.77,2.25,.26,3.24-.82,6.25-2.37,9.16-.43,.81-1.22,1.36-2.13,1.45-6.13,.63-12.12,1.21-18.09,1.9-1.71,.2-3.44,.58-5.03,1.22-.78,.31-1.8,1.47-1.72,2.12,.12,.92,1,1.97,1.85,2.52,.78,.51,1.93,.48,2.93,.61,1.76,.23,3.53,.44,5.33,.65h7.94c3.73,0,6.68,3.14,6.46,6.86l-2.58,42.15c.11,.64,.28,1.28,.57,1.91l2.05,8.34s.65,8.33,11.43,7.32c.72-.16,1.4-.59,1.82-1.24l1.73-2.69c.45-.69,.53-1.55,.25-2.33-1.65-4.74-2.23-9.77-2.04-14.77,.09-2.42,.14-5.14,.76-7.49,.25-.95,.24-1.7,1.1-2.38,.34-.27,1.7-.43,1.78-.54,.02-.03,4.45,.08,4.45,.08,5.37,5.81,7.46,5.14,7.46,5.14,5.2-1.76,0-9.37,0-9.37-.3-3.35-2.52-5.96-5.01-7.88-3.47-2.68-7.46-4-7.46-4-.37-.2-.64-.49-.88-.81l.88,.81,1.31-15.66,.03-.34c.21-2.52,2.07-4.67,4.58-5.06,3.87-.61,7.73-.53,11.55,.06,.9,.14,1.82-.17,2.38-.8l1.87-2.11c.65-.73,.86-2.07,.41-2.94Z"/></g><g class="cls-3"><g><path class="cls-1" d="M184.76,152.99c-.14-.88-.25-1.77-.35-2.66-.62-5.68-1.23-11.37-1.85-17.05-.34-3.19-1.01-6.35-1.12-9.56-.1-3.29,.79-6.42,.87-9.69,.16-6.57-2.65-13.79,.76-19.95,.64-1.15,.53-2.56-.37-3.52-1.81-1.9-3.49-3.68-5.25-5.36-.79-.75-1.92-1.53-2.94-1.59-5.31-.28-10.65-.13-15.95-.52-6.86-.51-13.84,1.28-20.62-1.2-.25-.09-.54-.1-.84-.06-2.06,.31-3.03,2.72-2.05,4.56,1.01,1.91,2.57,3.01,4.54,3.44,3.57,.79,7.33,.95,10.99,1.04,2.73,.07,5.44-.26,8.16-.47,2.25-.18,3.75,.96,4.51,2.87,1.76,4.41,2.72,8.97,2.88,14.01,.05,1.61-1.42,2.87-2.99,2.53-.33-.07-.65-.17-.95-.3-5.53-2.42-10.95-5.09-16.51-7.42-3.83-1.6-4.15-1.32-6.4,2.52,.77,3.14,1.69,6.28,2.28,9.48,.76,4.12,3.35,6.64,6.9,8.3,6.27,2.94,10.38,2.69,15.72-1.78,.99-.83,2.5-.08,2.5,1.21-.02,3.82,0,7.25,.12,10.69,.17,4.69,.95,9.27-.73,13.94,0,0-2.81,11.88-5.77,13.42-3.71,1.94-5.99,5.9-8.51,9.22-3.17,4.17-1.08,10.48,3.68,12.6,4.31,1.93,8.82,2.57,13.48,2.41,7.81-.28,13.91-3.43,17.57-10.61,.2-.39,.43-.75,.68-1.11,2.53-3.68,2.1-7.64,0-11.05-1.67-2.7-1.99-5.49-2.44-8.37Z"/><path class="cls-1" d="M127.46,93.78c-3.68-2.61-8.24-3.66-12.7-4.35-2.29-.35-4.6-.63-6.91-.83-1.13-.1-2.48-.07-3.1,.87-.42,.63-.34,1.45-.27,2.21,1.96,18.85-3.46,37.85-1.78,56.72,.66,7.46,2.43,14.77,4.18,22.05,.29,1.19,.59,2.42,1.32,3.4,.97,1.31,2.54,2.01,4.04,2.66,4.25,1.82,9.07,3.65,13.35,1.9,1.24-.51,2.34-1.31,3.23-2.32,.83-.94,1.46-2.06,1.82-3.26,1-3.35-1.1-6.92-1.38-10.26-.36-4.3-.24-8.66-.21-12.97,.05-7.21,.1-14.42,.15-21.63,.02-2.21,.04-4.45,.67-6.56,.77-2.54,2.38-4.74,3.41-7.19,2.99-7.05,.42-16.02-5.83-20.45Z"/><path class="cls-1" d="M161.52,143.66c1.91-.79,2.56-2.25,2.21-4.17-.57-3.2-1.77-6.08-3.84-7.68-3.62-.71-7.22-.44-9.32-2.09-1.95-1.53-4.05-2.09-6.16-2.85-1.35-.49-2.87-.06-3.79,1.04-1.93,2.3-1.89,4.39-.16,7.41,2.08,3.63,5.57,5.7,8.85,8.09,4.16,3.04,8.1,1.95,12.2,.25Z"/></g><g><path class="cls-1" d="M149.08,61.08l2.01-1.49s1.06-3.38,5.51-4.07l-6.57-6.51-2.44,2.97,1.48,9.11Z"/><path class="cls-1" d="M215.15,65.18c-2.34-2.77-5.76-4.11-10.11-3.9-3.96,.19-7.92,.48-11.85,.94-11.62,1.35-23.21,2.89-34.84,4.17-.58,.06-1.17,.12-1.75,.16-.9,.07-1.81,.1-2.72,.06-1.91-.07-3.34-1.81-3.14-3.71l.76-7.07s.69-.05,2-.13c.8-.05,1.84-.11,3.11-.18,.41-.02,.85-.05,1.31-.08l4.74,.17c21.14,.09,21.06-1.45,21.06-1.45,.67-.43,1.07-1.23,.91-2.07-.25-1.32-.57-3.06-.87-4.68-.38-2.07-2.63-3.06-4.55-2.11-1.22,.6-2.1,.34-3.37,0-1.27-.35-2.6-.41-3.91-.41-1.59,0-3.18,.19-4.76,.38l-2.7,.33-5.74,.19-3.76,.12c-1.62,.05-2.75-1.59-2.12-3.08l3.95-9.4c.4-.95,1.32-1.56,2.35-1.56h15.58c.05,0,.11,0,.16,.01,3.79,.22,7.66,1.36,11.24,1.63,5.08,.39,10.15,.19,14.85-2.01,2.94-1.38,3.7-2.98,2.74-5.55-.36-.97-1.22-1.7-2.24-1.9-3.26-.66-6.49-1.13-9.47-2.27-2.39-.92-5.01-1.6-7.58-1.05-2.5,.53-4.7,1.88-7.16,2.52-2.67,.69-5.01-.03-7.67-.27h-7.8l-2.25-1.09s3.06-7.51-1.67-11.99c-2.83-1.78-5.13-3.57-7.7-4.4-6.71-2.17-13.58-3.9-20.47-5.45-1.35-.3-3.54,.63-4.5,1.73-1.04,1.2-1.74,2.69-2.4,4.11-.52,1.13-.31,2.47,.53,3.39,2.97,3.27,3.35,3.86,3.9,5.88,.13,.49,.16,1,.05,1.5-.27,1.22-.77,3.56-.77,3.56l-1.48,5.53c-.31,1.15-1.25,2.03-2.41,2.24-16.31,3.03-32.7,3.72-49.72,4.49-.46,.02-.91,.2-1.26,.51-1.07,.95-.87,2.73,.43,3.34,3.34,1.57,6.63,2.11,10.12,1.84,3.25-.25,7.57-.79,10.82-.96,5.16-.26,10.32-.44,15.47-.62,.84-.03,1.8-.04,2.53,.31,1.61,.78,3.24,1.2,4.96,1.15,2.18-.05,3.69,2.18,2.88,4.21l-.82,2.05c-.48,1.21-1.2,1.87-2.07,2.16-3.64,1.22-7.15-.13-10.52-.48-1.52-.16-2.99,.82-3.39,2.29-1.2,4.41,1.22,7.41,6.09,7.38,2.16-.02,4.32-.42,6.48-.43,2.08-.01,4.17,.09,6.49,.2,1.49,.07,2.72,1.19,2.94,2.66,.3,1.98,.58,3.77,.39,5.51-.1,.93-.13,1.76,0,2.56,.29,1.81-.98,3.49-2.8,3.62-3.05,.22-6.09,.43-9.14,.68-4.72,.39-9.45,.75-14.16,1.3-9.69,1.13-19.28,3.95-29.18,1.34-2.33-.62-4.22,.77-5.09,2.98-.93,2.34,.41,3.9,1.84,5.36,2.75,2.82,7.88,4.11,12.37,3.6v.12s6.14-.4,10.4-2.67c0,0,.05-.01,.11-.03,.39-.07,.78-.15,1.17-.26,3.13-.68,11.21-2.41,14.83-2.8,2.71,.02,5.41,.06,8.09-.2,13.09-1.27,26.13-2.99,39.23-4.15,1.13-.1,2.26-.31,3.39-.54,0,0,9.72,.19,9.76,.18,.35,.05,.71,.05,1.06-.01,8.38-1.47,16.46-1.02,24.87-1.47,5.28-.28,10.55-.63,15.83-.89,2.89-.14,5.38-1.05,7.54-2.6,1.51-1.08,1.75-3.15,.55-4.57Z"/></g></g><g class="cls-3"><path class="cls-1" d="M121.36,275.15v-23.69h.53l15.74,18.14v-18.14h2.34v23.69h-.53l-15.64-17.91v17.91h-2.44Z"/><path class="cls-1" d="M169.43,257.63v17.52h-2.21v-3c-2,2.4-4.29,3.6-6.86,3.6s-4.75-.92-6.52-2.75c-1.77-1.84-2.66-4.02-2.66-6.56s.89-4.72,2.67-6.53c1.78-1.81,3.91-2.72,6.4-2.72,2.86,0,5.18,1.22,6.96,3.66v-3.2h2.21Zm-2.08,8.84c0-2-.67-3.69-2.01-5.06-1.34-1.37-2.99-2.06-4.93-2.06s-3.59,.71-4.93,2.13c-1.34,1.42-2.01,3.1-2.01,5.03s.68,3.61,2.04,5.03c1.36,1.42,3,2.13,4.9,2.13s3.54-.68,4.9-2.05c1.36-1.36,2.05-3.08,2.05-5.15Z"/><path class="cls-1" d="M185.36,272.38c0,.59,.08,.95,.23,1.06,.15,.11,.55,.17,1.19,.17h1.35v1.91c-.92,.15-1.65,.23-2.18,.23-.99,0-1.72-.24-2.18-.73s-.69-1.24-.69-2.28v-13.2h-3.1v-1.91h3.1v-6.76h2.28v6.76h3.56v1.91h-3.56v12.83Z"/><path class="cls-1" d="M213.93,275.15h-2.28v-3.13c-1.8,2.4-3.99,3.6-6.57,3.6-1.32,0-2.51-.36-3.56-1.07-1.06-.71-1.8-1.65-2.24-2.8-.44-1.16-.66-2.85-.66-5.1v-9.01h2.24v8.35c0,2.04,.09,3.43,.28,4.16,.19,.73,.47,1.34,.86,1.85,.38,.51,.87,.89,1.47,1.15,.59,.26,1.31,.4,2.16,.4s1.68-.21,2.49-.63,1.51-1,2.08-1.75c.57-.75,.96-1.52,1.15-2.31,.2-.79,.3-2.39,.3-4.78v-6.43h2.28v17.52Z"/><path class="cls-1" d="M224.68,257.63h2.31v2.54c.62-1.03,1.22-1.79,1.8-2.28,.58-.48,1.23-.73,1.95-.73s1.43,.2,2.16,.59l-1.19,1.91c-.33-.2-.67-.3-1.02-.3-.68,0-1.33,.35-1.93,1.06-.61,.7-1.05,1.61-1.34,2.72-.29,1.11-.43,3.13-.43,6.05v5.94h-2.31v-17.52Z"/><path class="cls-1" d="M256.82,269.47l1.91,.99c-1.89,3.52-4.68,5.28-8.38,5.28-2.64,0-4.82-.91-6.53-2.72-1.72-1.81-2.57-4-2.57-6.55s.86-4.74,2.59-6.56c1.73-1.83,3.86-2.74,6.4-2.74s4.67,.85,6.4,2.54c1.73,1.69,2.62,4,2.69,6.93h-15.77c.07,2.11,.73,3.81,2,5.1,1.26,1.29,2.8,1.93,4.6,1.93,2.97,0,5.19-1.4,6.66-4.19Zm0-4.78c-.31-1.67-1.08-2.98-2.31-3.93-1.23-.95-2.65-1.42-4.26-1.42-3.3,0-5.45,1.78-6.47,5.34h13.03Z"/><path class="cls-1" d="M285.32,251.46h11.88v2.34h-9.5v7.39h9.5v2.34h-9.5v11.61h-2.38v-23.69Z"/><path class="cls-1" d="M306.73,266.5c0-2.57,.88-4.77,2.66-6.6,1.77-1.83,3.93-2.74,6.47-2.74s4.7,.91,6.47,2.74c1.77,1.83,2.66,4.01,2.66,6.56s-.88,4.73-2.62,6.55c-1.75,1.81-3.91,2.72-6.48,2.72s-4.74-.91-6.5-2.72c-1.76-1.81-2.64-3.99-2.64-6.52Zm15.97,.03c0-1.93-.68-3.61-2.03-5.03-1.35-1.42-2.96-2.13-4.82-2.13s-3.46,.71-4.8,2.13c-1.34,1.42-2.01,3.11-2.01,5.06s.65,3.62,1.95,4.98c1.3,1.36,2.91,2.04,4.83,2.04s3.55-.69,4.88-2.06c1.33-1.37,2-3.04,2-5Z"/><path class="cls-1" d="M334.9,257.63h2.31v2.54c.62-1.03,1.22-1.79,1.8-2.28,.58-.48,1.23-.73,1.95-.73s1.43,.2,2.16,.59l-1.19,1.91c-.33-.2-.67-.3-1.02-.3-.68,0-1.33,.35-1.93,1.06-.61,.7-1.05,1.61-1.34,2.72-.29,1.11-.43,3.13-.43,6.05v5.94h-2.31v-17.52Z"/><path class="cls-1" d="M367.03,269.47l1.91,.99c-1.89,3.52-4.68,5.28-8.38,5.28-2.64,0-4.82-.91-6.53-2.72-1.72-1.81-2.57-4-2.57-6.55s.86-4.74,2.59-6.56c1.73-1.83,3.86-2.74,6.4-2.74s4.67,.85,6.4,2.54c1.73,1.69,2.62,4,2.69,6.93h-15.77c.07,2.11,.73,3.81,2,5.1,1.26,1.29,2.8,1.93,4.6,1.93,2.97,0,5.19-1.4,6.66-4.19Zm0-4.78c-.31-1.67-1.08-2.98-2.31-3.93-1.23-.95-2.65-1.42-4.26-1.42-3.3,0-5.46,1.78-6.47,5.34h13.03Z"/><path class="cls-1" d="M389.13,259.54l-1.45,1.49c-1.21-1.17-2.39-1.75-3.53-1.75-.75,0-1.38,.24-1.88,.71-.51,.47-.76,1.06-.76,1.75s.27,1.29,.81,1.78c.54,.5,1.47,1.09,2.79,1.78,1.32,.69,2.33,1.44,3.02,2.24,.69,.8,1.04,1.79,1.04,2.95,0,1.47-.51,2.72-1.53,3.73-1.02,1.01-2.28,1.52-3.78,1.52-.99,0-1.94-.22-2.85-.66-.91-.44-1.69-1.06-2.33-1.85l1.42-1.58c1.17,1.3,2.39,1.95,3.66,1.95,.9,0,1.67-.3,2.31-.89,.64-.59,.96-1.29,.96-2.09s-.28-1.46-.84-1.98c-.56-.52-1.5-1.11-2.8-1.76-1.31-.66-2.29-1.38-2.94-2.16-.65-.78-.97-1.79-.97-3.04s.46-2.3,1.37-3.18c.91-.88,2.12-1.32,3.63-1.32s3.06,.79,4.67,2.38Z"/><path class="cls-1" d="M403.98,272.38c0,.59,.08,.95,.23,1.06,.15,.11,.55,.17,1.19,.17h1.35v1.91c-.92,.15-1.65,.23-2.18,.23-.99,0-1.71-.24-2.18-.73-.46-.48-.69-1.24-.69-2.28v-13.2h-3.1v-1.91h3.1v-6.76h2.28v6.76h3.56v1.91h-3.56v12.83Z"/><path class="cls-1" d="M432.71,251.46h2.41v21.41h9.11v2.28h-11.51v-23.69Z"/><path class="cls-1" d="M453.13,252.75c0-.51,.18-.95,.54-1.32,.36-.37,.8-.56,1.32-.56s.96,.18,1.32,.54,.54,.8,.54,1.32-.18,.96-.54,1.32-.8,.54-1.32,.54-.96-.19-1.32-.56-.54-.8-.54-1.29Zm.73,4.88h2.28v17.52h-2.28v-17.52Z"/><path class="cls-1" d="M474.61,251.33v2.21c-.86-.37-1.62-.56-2.29-.56s-1.11,.21-1.3,.64c-.2,.43-.3,1.13-.3,2.09v1.91h3.66v1.91h-3.66v15.6h-2.28v-15.6h-2.28v-1.91h2.28v-2.28c0-1.54,.29-2.67,.86-3.4,.57-.73,1.46-1.09,2.67-1.09,.7,0,1.58,.15,2.64,.46Z"/><path class="cls-1" d="M499.09,269.47l1.91,.99c-1.89,3.52-4.68,5.28-8.38,5.28-2.64,0-4.82-.91-6.53-2.72-1.72-1.81-2.57-4-2.57-6.55s.86-4.74,2.59-6.56c1.73-1.83,3.86-2.74,6.4-2.74s4.67,.85,6.4,2.54c1.73,1.69,2.62,4,2.69,6.93h-15.77c.07,2.11,.73,3.81,2,5.1,1.26,1.29,2.8,1.93,4.6,1.93,2.97,0,5.19-1.4,6.66-4.19Zm0-4.78c-.31-1.67-1.08-2.98-2.31-3.93-1.23-.95-2.65-1.42-4.26-1.42-3.3,0-5.46,1.78-6.47,5.34h13.03Z"/></g></g></g></svg>