<?xml version="1.0" encoding="UTF-8"?><svg id="_圖層_2" xmlns="http://www.w3.org/2000/svg" xmlns:xlink="http://www.w3.org/1999/xlink" viewBox="0 0 279.77 119.66"><defs><style>.cls-1{fill:none;}.cls-2{font-family:NotoSansCJKtc-Bold-B5pc-H, 'Noto Sans CJK TC';font-size:17.32px;glyph-orientation-vertical:0deg;letter-spacing:.35em;text-orientation:upright;writing-mode:tb;}.cls-2,.cls-3{fill:#fff;}.cls-4{fill:#d13639;}.cls-5{filter:url(#drop-shadow-1);}</style><filter id="drop-shadow-1" filterUnits="userSpaceOnUse"><feOffset dx="0" dy="0"/><feGaussianBlur result="blur" stdDeviation="5"/><feFlood flood-color="#050001" flood-opacity=".25"/><feComposite in2="blur" operator="in"/><feComposite in="SourceGraphic"/></filter></defs><g id="_選單"><g><rect class="cls-4" x="0" y="6.62" width="22.16" height="66.2" rx="8.02" ry="8.02"/><text class="cls-2" transform="translate(11.08 18.71)"><tspan x="0" y="0">達笙</tspan></text><g class="cls-5"><path class="cls-3" d="M198.28,101.08c-.95-1.68-2.34-3.21-3.74-4.68-.76-.8-1.39-1.77-2.26-2.45-.95-.74-1.99-.67-2.99-1.2-.83-.44-1.53-1.1-2.32-1.59-.96-.6-1.94-.94-2.79-.25-.62,.5-.66,4.2-.79,5.07-.13,.82-.33,1.7-.19,2.53,.18,1.12,.88,2.05,1.2,3.13,.29,.98,.26,2.01,.72,2.96,.85,1.76,2.11,3.29,3.03,5.01,.31,.59,1.19,1.01,1.9,1.23,1.09,.34,2.26,.54,3.4,.62,3.05,.23,4.93-.91,5.75-3.8,.71-2.5,.2-4.65-.9-6.58Z"/><path class="cls-3" d="M150.57,100.79c.57-1.85,1.6-3.63,2.65-5.37,.57-.94,.98-2.02,1.69-2.88,.77-.93,1.8-1.08,2.66-1.81,.72-.61,1.26-1.4,1.93-2.05,.81-.79,1.69-1.33,2.67-.84,.72,.36,1.54,3.97,1.86,4.79,.3,.77,.68,1.59,.73,2.43,.07,1.14-.43,2.19-.51,3.31-.07,1.02,.18,2.02-.07,3.04-.46,1.9-1.36,3.66-1.89,5.54-.18,.64-.95,1.24-1.59,1.61-1,.57-2.09,1.01-3.19,1.34-2.93,.88-5.01,.16-6.43-2.49-1.23-2.29-1.18-4.5-.53-6.62Z"/><path class="cls-3" d="M115.78,97.29c1.25-1.47,2.9-2.71,4.56-3.88,.9-.64,1.7-1.47,2.69-1.97,1.07-.55,2.08-.28,3.16-.61,.9-.27,1.71-.79,2.59-1.12,1.05-.4,2.08-.55,2.79,.28,.52,.61-.15,4.25-.19,5.13-.03,.83,0,1.73-.29,2.52-.39,1.07-1.26,1.85-1.77,2.84-.47,.91-.64,1.93-1.26,2.77-1.17,1.57-2.7,2.83-3.92,4.35-.42,.52-1.36,.77-2.1,.85-1.14,.13-2.32,.1-3.46-.03-3.04-.35-4.67-1.83-4.93-4.83-.22-2.59,.69-4.6,2.13-6.29Z"/><path class="cls-3" d="M131.44,55.16c1.01-1.65,2.45-3.12,3.91-4.54,.79-.77,1.45-1.72,2.35-2.37,.97-.7,2.02-.6,3.03-1.09,.85-.41,1.57-1.04,2.38-1.51,.98-.56,1.97-.87,2.8-.15,.6,.53,.5,4.22,.61,5.1,.1,.82,.26,1.71,.1,2.53-.22,1.12-.96,2.02-1.32,3.08-.33,.97-.33,2-.82,2.93-.91,1.73-2.23,3.21-3.21,4.9-.34,.58-1.23,.97-1.94,1.16-1.11,.3-2.27,.45-3.42,.5-3.06,.12-4.9-1.09-5.61-4.01-.62-2.53-.03-4.65,1.14-6.55Z"/><g><path class="cls-3" d="M202.8,58.03c-.57-2.83-1.05-5.16-1.53-7.57,1.15-2.36,1.53-2.37,4.08-1.54,4.41,1.44,8.88,2.72,13.34,3.97,2.81,.79,5.2,3.95,4.95,6.8-.19,2.2-1.29,3.55-3.45,4.1-.83,.21-1.7,.3-2.56,.38-.66,.06-1.36-.08-1.99,.06-4.21,.93-7.29-1.22-10.23-3.71-1.01-.86-1.93-1.82-2.61-2.47Z"/><path class="cls-3" d="M207.34,80.42c.37-1.88,.67-3.78,1.15-5.64,.29-1.12,.96-2.04,2.27-2.25,1.64-.27,2.25,.2,2.68,1.83,.17,.65,.55,1.35,1.04,1.79,2.14,1.89,4.3,3.78,6.57,5.51,1.32,1,1.52,2.13,1.33,3.64-.69,5.56-7.04,6.05-10.42,3.88-2.3-1.48-4.86-5.94-4.62-8.75Z"/><path class="cls-3" d="M273.95,48.06c-2.23,.14-4.3,1.12-6.41,1.87-1.87,.67-5.31,1.79-6.83,.09-1.42-1.59-.8-5.49-.76-7.41,.05-2.34,1.06-4.72,2.64-6.43,2.06-2.24,3.81-1.6,6.17-2.58,.31-.13,.54-.4,.77-.64,2.33-2.52,5.79-3.56,8.1-6.15,4.02-4.49,2.11-11.77-3.55-13.8-2.7-.97-5.26-2.46-8.06-3.28-1.29-.38-3.04-.92-4.39-.47-1.59,.54-2.09,2.19-3.16,3.36-1.45,1.6-3.02,3.1-4.67,4.5-2.96,2.49-6.21,4.64-9.64,6.44-2.04,1.07-4.13,2.07-6.29,2.89-1.81,.68-3.66,.83-5.18,2.12-1.37-2.55-2.36-4.25-5.12-5.64-1.6-.81-3.21-1.59-4.82-2.38-3.76-1.86-7.77-2.69-11.94-2.77-3.1-.06-3.79,.88-2.91,3.93,1.24,4.28,3.88,7.68,7.04,10.7,2.02,1.93,4.41,2.9,7.27,2.6,.92-.1,1.86-.12,2.79-.09,2.77,.08,5.08-.79,6.8-3.04,.06-.07,.24-.06,.44-.1,.58,2.24,1.78,4.19,1.97,6.7,.2,2.58,1.77,5,4.02,6.66,1.53,1.14,3.23,1.55,5.06,.74,2.89-1.28,5.67-2.79,8.58-4.03,3.28-1.4,3.91-.66,4.34,2.8,.52,4.15,.66,6.71-3.82,7.87-5.77,1.5-11.68,2.44-17.64,2.77-1.31,.07-2.83,.24-3.51,1.36-.84,1.4,.42,3.29,1.99,3.73,1.57,.44,3.23-.1,4.78-.6,5.5-1.75,11.9-3.73,17.71-3.72,.08,1.74-.63,3.57-.32,5.45,.1,.59,1.13,4.74,2.07,4.52-2.66,.62-5.38,.92-8.07,1.4-.51,.09-6.5,.88-6.5,1.41,.12,4.4,.23,8.8,.35,13.21,.04,1.7,.1,3.44,.71,5.03,.61,1.59,1.9,3.02,3.57,3.32,1.67,.3,3.61-.9,3.68-2.6,6.67,4.09,14.91,5.54,22.58,3.96,1.89-.39,4.15-1.47,4.08-3.4-.01-.45-.16-.88-.31-1.31-1.17-3.48-2.04-7.07-2.58-10.7-.28-1.85-.48-3.71-.59-5.58-.1-1.64,.11-3.4-.11-5.01-.17-1.26-.88-1.69-2.06-1.83-2.71-.33-5.48-.12-8.1,.64-.41,.12-.86,.25-1.27,.09-.65-.25-.81-1.09-.87-1.79-.17-2.13-.29-4.26-.35-6.39-.02-.54,0-1.16,.39-1.54,.33-.32,.82-.37,1.27-.41,3.3-.28,6.6-.55,9.9-.83,1.86-.16,3.76-.32,5.5-1.02,.34-.14,.7-.32,.86-.64,.16-.34,.08-.74-.06-1.08-.83-2.07-3.33-3.04-5.55-2.9Zm-8.52,19.08c1.26-.67,2.22,.07,2.19,1.51-.05,2.72-.25,5.45-.1,8.15,.11,1.89,.68,3.75,1.07,5.62,.12,.58,.31,1.14,.57,2.05-5.91,.2-11.56,.38-17.4,.58-.61-.29-.85-.94-.93-1.82-.34-3.74-.77-7.48-1.14-11.22-.06-.58,0-1.17,0-2,1.97-.21,3.85-.42,5.74-.62,3.43-.35,6.87-.58,10.01-2.26Z"/></g><path class="cls-3" d="M152.11,62.7c.32,.97,.49,1.99,.48,3.01,0,.44-.04,.9,.12,1.31,.28,.71,1.06,1.07,1.77,1.37,1.99,.82,4.08,1.66,6.27,1.18,.69-.15,1.34-.47,1.88-.93,1.9-1.63,1.22-3.46,.91-5.23-.42-2.38-.29-5.17,.64-7.41,.38-.9,1.15-2.56,2.29-2.35,1.14,.21,1.97,2.29,2.49,3.14,2.27,3.68,7.09,5.37,11.25,4.43,2.45-.56,3.75-3.16,2.64-5.42-.77-1.56-2.04-2.93-3.49-3.91-2.59-1.74-5.69-2.48-8.73-3.2-1.32-.31-2.71-.62-4.02-.26-.78,.21-1.55,.74-1.95,1.46-.26,.47-.21,1.04-.5,1.52-.06,.1-.15,.2-.26,.17-.12-.03-.14-.19-.14-.32,.01-.49,.09-1.04-.01-1.53-.16-.79-.31-1.55-.31-2.36,0-1.51,.37-3.03,1.1-4.36,.3-.54,.67-1.07,1.23-1.32,.56-.26,1.2-.2,1.81-.14,1.82,.19,3.63,.37,5.45,.56,1.49,.15,3.02,.3,4.45-.15,1.89-.6,3.56-2.53,2.42-4.69-.47-.89-1.32-1.52-2.27-1.84-2.09-.68-4.22-.02-6.3,.43-1.29,.28-2.66,.47-3.94,.24-.79-.14-1.34-.85-1.3-1.65,.14-3.36-1.73-6.71-4.46-8.75-3.04-2.27-6.98-3.08-10.78-2.98-.33,0-.67,.03-.93,.23-.28,.22-.38,.6-.44,.96-.59,3.8,1.68,7.85,.19,11.39-.13,.31-.29,.61-.52,.86-.07,.08-.15,.15-.23,.22-.35,.27-.79,.39-1.21,.49-2.83,.66-5.79,.76-8.65,.29-1.17-.19-2.4-.47-3.49,.14-.71,.4-1.15,1.23-.87,2,.56,1.52,3.07,.97,4.02,2.25h8.48c1.89,0,3.46,1.46,3.6,3.35l1.29,17.82Z"/><path class="cls-3" d="M193.73,77.92c-1.31-1.95-3.44-3.01-5.62-2.85-1.01,.07-2.02,.02-3.38,.01-.1,0-.2,.02-.29,.03l-2.74,.55c-.58,.12-1.18-.14-1.5-.65-.29-.46-.55-.87-.81-1.28-1.11-1.77-2.15-3.59-3.38-5.27-.44-.59-1.36-1.16-2.05-1.16-1.03,0-1.07,1.06-1.2,1.94-.28,1.88-.62,3.76-.97,5.71-.08,.47-.4,.88-.83,1.07-.34,.15-.67,.28-1.01,.36-3.52,.76-7,.71-10.15-.53-.45-.18-.95-.14-1.35,.12-.95,.63-1.52,1.32-1.4,2.38,.04,.39,.26,.76,.59,.98,1.67,1.12,3.72,1.33,5.53,1.81h4.11c1.66,0,3.02,1.32,3.08,2.97l.59,17.09c.55,4.75,1.04,9.52,1.7,14.26,.18,1.33,.91,2.23,1.97,2.7,4.44,3.37,7.33,.02,7.33,.02-.23-4.04-2.02-16.42-2.02-16.42,0-.2-.02-.41-.04-.6-.45-4.6-.99-9.19-1.35-13.8-.09-1.14,.24-2.31,.45-3.64,.04-.27,.15-.53,.33-.73,2.06-2.37,4.59-3.36,7.81-2.17,.38,.14,1.01,.29,1.41,.29,1.7,0,3.33-.25,4.74-1.08,.71-.43,.93-1.41,.47-2.1Z"/><path class="cls-3" d="M144.57,93.77l-.47-.43c.12,.17,.27,.33,.47,.43Z"/><path class="cls-1" d="M144.57,93.77l-.47-.43c.12,.17,.27,.33,.47,.43Z"/><path class="cls-3" d="M156.41,79.39c-.4-.78-1.17-1.04-1.9-1.38-2.04-.95-4.12-.25-6.17-.2-3.03,.07-3.06,.04-3.34-2.89-.14-1.5-.49-3.06-2.15-3.52-1.34-.38-2.81-.71-4,.44-.32,.31-.45,.76-.41,1.2,.14,1.74-.44,3.34-1.27,4.9-.23,.43-.66,.73-1.14,.78-3.28,.34-6.49,.65-9.69,1.02-.91,.11-1.84,.31-2.69,.65-.42,.17-.97,.79-.92,1.14,.06,.49,.54,1.05,.99,1.35,.42,.27,1.03,.25,1.57,.32,.94,.12,1.89,.24,2.85,.35h4.25c2,0,3.58,1.68,3.46,3.67l-1.38,22.56c.06,.34,.15,.68,.3,1.02l1.1,4.47s.35,4.46,6.12,3.92c.38-.09,.75-.31,.97-.66l.93-1.44c.24-.37,.28-.83,.14-1.25-.88-2.54-1.19-5.23-1.09-7.91,.05-1.29,.07-2.75,.41-4.01,.14-.51,.13-.91,.59-1.27,.18-.14,.91-.23,.95-.29,.01-.02,2.38,.04,2.38,.04,2.87,3.11,3.99,2.75,3.99,2.75,2.78-.94,0-5.02,0-5.02-.16-1.79-1.35-3.19-2.68-4.22-1.86-1.44-3.99-2.14-3.99-2.14-.2-.11-.34-.26-.47-.43l.47,.43,.7-8.39,.02-.18c.11-1.35,1.11-2.5,2.45-2.71,2.07-.33,4.14-.28,6.18,.03,.48,.07,.97-.09,1.28-.43l1-1.13c.35-.39,.46-1.11,.22-1.58Z"/><path class="cls-3" d="M98.9,81.89c-.07-.47-.14-.95-.19-1.43-.33-3.04-.66-6.09-.99-9.13-.18-1.71-.54-3.4-.6-5.12-.06-1.76,.42-3.44,.47-5.19,.08-3.52-1.42-7.38,.41-10.68,.34-.62,.29-1.37-.2-1.88-.97-1.02-1.87-1.97-2.81-2.87-.42-.4-1.03-.82-1.57-.85-2.84-.15-5.7-.07-8.54-.28-3.67-.27-7.41,.68-11.04-.64-.14-.05-.29-.05-.45-.03-1.1,.16-1.62,1.46-1.1,2.44,.54,1.02,1.37,1.61,2.43,1.84,1.91,.42,3.92,.51,5.88,.56,1.46,.04,2.91-.14,4.37-.25,1.2-.09,2.01,.52,2.41,1.54,.94,2.36,1.45,4.8,1.54,7.5,.03,.86-.76,1.54-1.6,1.35-.18-.04-.35-.09-.51-.16-2.96-1.3-5.86-2.72-8.84-3.97-2.05-.86-2.22-.71-3.43,1.35,.41,1.68,.9,3.36,1.22,5.07,.41,2.21,1.79,3.55,3.69,4.44,3.35,1.57,5.55,1.44,8.42-.95,.53-.44,1.34-.04,1.34,.65-.01,2.05,0,3.88,.06,5.72,.09,2.51,.51,4.96-.39,7.46,0,0-1.51,6.36-3.09,7.19-1.98,1.04-3.21,3.16-4.56,4.94-1.69,2.23-.58,5.61,1.97,6.75,2.31,1.03,4.72,1.38,7.21,1.29,4.18-.15,7.45-1.83,9.4-5.68,.1-.21,.23-.4,.36-.59,1.35-1.97,1.12-4.09,0-5.91-.89-1.44-1.06-2.94-1.31-4.48Z"/><path class="cls-3" d="M68.23,50.2c-1.97-1.4-4.41-1.96-6.8-2.33-1.23-.19-2.46-.34-3.7-.44-.6-.05-1.33-.04-1.66,.47-.22,.34-.18,.78-.14,1.18,1.05,10.09-1.85,20.26-.95,30.36,.36,3.99,1.3,7.91,2.24,11.8,.15,.64,.32,1.29,.71,1.82,.52,.7,1.36,1.08,2.16,1.42,2.27,.97,4.86,1.96,7.14,1.02,.66-.27,1.25-.7,1.73-1.24,.44-.5,.78-1.1,.97-1.74,.54-1.79-.59-3.7-.74-5.49-.19-2.3-.13-4.63-.11-6.94,.03-3.86,.05-7.72,.08-11.58,0-1.18,.02-2.38,.36-3.51,.41-1.36,1.27-2.54,1.83-3.85,1.6-3.78,.22-8.57-3.12-10.95Z"/><path class="cls-3" d="M86.46,76.9c1.02-.42,1.37-1.2,1.18-2.23-.31-1.71-.94-3.26-2.06-4.11-1.94-.38-3.87-.24-4.99-1.12-1.04-.82-2.17-1.12-3.3-1.52-.72-.26-1.53-.03-2.03,.56-1.03,1.23-1.01,2.35-.08,3.97,1.11,1.94,2.98,3.05,4.74,4.33,2.23,1.63,4.33,1.05,6.53,.13Z"/><path class="cls-3" d="M79.8,32.7l1.08-.8s.57-1.81,2.95-2.18l-3.51-3.49-1.3,1.59,.79,4.88Z"/><path class="cls-3" d="M115.17,34.89c-1.25-1.48-3.08-2.2-5.41-2.09-2.12,.1-4.24,.26-6.34,.5-6.22,.72-12.43,1.55-18.65,2.23-.31,.03-.62,.06-.94,.08-.48,.03-.97,.05-1.46,.03-1.02-.04-1.79-.97-1.68-1.99l.4-3.78s.37-.02,1.07-.07c.43-.03,.98-.06,1.66-.1,.22-.01,.46-.03,.7-.04l2.54,.09c11.32,.05,11.27-.78,11.27-.78,.36-.23,.57-.66,.49-1.11-.13-.71-.3-1.64-.46-2.51-.2-1.11-1.41-1.64-2.44-1.13-.65,.32-1.12,.18-1.8,0-.68-.19-1.39-.22-2.09-.22-.85,0-1.7,.1-2.55,.21l-1.44,.18-3.07,.1-2.01,.07c-.87,.03-1.47-.85-1.14-1.65l2.11-5.03c.21-.51,.71-.84,1.26-.84h8.34s.06,0,.09,0c2.03,.12,4.1,.73,6.02,.87,2.72,.21,5.43,.1,7.95-1.08,1.57-.74,1.98-1.6,1.47-2.97-.19-.52-.66-.91-1.2-1.02-1.74-.35-3.48-.6-5.07-1.22-1.28-.49-2.68-.86-4.06-.56-1.34,.28-2.52,1.01-3.83,1.35-1.43,.37-2.68-.02-4.1-.15h-4.17l-1.2-.58s1.64-4.02-.89-6.42c-1.52-.95-2.75-1.91-4.12-2.36-3.59-1.16-7.27-2.09-10.96-2.92-.72-.16-1.9,.34-2.41,.92-.56,.64-.93,1.44-1.28,2.2-.28,.61-.16,1.32,.28,1.82,1.59,1.75,1.79,2.06,2.09,3.15,.07,.26,.08,.54,.03,.8-.14,.65-.41,1.9-.41,1.9l-.79,2.96c-.16,.61-.67,1.08-1.29,1.2-8.73,1.62-17.5,1.99-26.61,2.4-.25,.01-.49,.11-.67,.27-.57,.51-.46,1.46,.23,1.79,1.79,.84,3.55,1.13,5.42,.99,1.74-.13,4.05-.43,5.79-.51,2.76-.14,5.52-.24,8.28-.33,.45-.02,.97-.02,1.35,.17,.86,.42,1.73,.64,2.66,.62,1.17-.03,1.97,1.17,1.54,2.26l-.44,1.1c-.26,.65-.64,1-1.11,1.16-1.95,.65-3.83-.07-5.63-.25-.81-.08-1.6,.44-1.82,1.23-.64,2.36,.65,3.97,3.26,3.95,1.16,0,2.31-.22,3.47-.23,1.11,0,2.23,.05,3.47,.11,.8,.04,1.46,.64,1.58,1.42,.16,1.06,.31,2.02,.21,2.95-.05,.5-.07,.94,0,1.37,.15,.97-.52,1.87-1.5,1.94-1.63,.12-3.26,.23-4.89,.36-2.53,.21-5.06,.4-7.58,.69-5.19,.61-10.32,2.11-15.62,.72-1.25-.33-2.26,.41-2.73,1.59-.5,1.25,.22,2.09,.98,2.87,1.47,1.51,4.22,2.2,6.62,1.93v.06s3.29-.21,5.57-1.43c0,0,.03,0,.06-.01,.21-.03,.42-.08,.63-.14,1.67-.37,6-1.29,7.94-1.5,1.45,.01,2.9,.03,4.33-.11,7-.68,13.99-1.6,21-2.22,.6-.05,1.21-.17,1.82-.29,0,0,5.2,.1,5.22,.1,.19,.03,.38,.03,.57,0,4.48-.79,8.81-.55,13.31-.79,2.83-.15,5.65-.33,8.47-.47,1.55-.08,2.88-.56,4.04-1.39,.81-.58,.94-1.69,.3-2.45Z"/></g></g></g></svg>