<?xml version="1.0" encoding="UTF-8"?><svg id="_圖層_2" xmlns="http://www.w3.org/2000/svg" viewBox="0 0 298.88 94.16"><defs><style>.cls-1,.cls-2{fill:#fff;}.cls-3{fill:#218095;}.cls-2,.cls-4{stroke:#0e89a1;stroke-miterlimit:10;stroke-width:.5px;}.cls-4{fill:#0e89a1;}</style></defs><g id="_資料"><polygon class="cls-2" points="252.34 86.38 59.4 86.38 50.9 79.68 50.9 41.44 252.34 41.44 252.34 86.38"/><polygon id="b12_bg" class="cls-2" points="76.92 8.46 76.92 41.25 113.91 41.25 113.91 11.95 103.13 11.95 103.13 .25 90.02 .25 90.02 8.44 76.92 8.46"/><polygon id="b11_bg" class="cls-2" points="113.85 8.46 113.85 41.25 150.83 41.25 150.83 11.95 140.05 11.95 140.05 .25 126.95 .25 126.95 8.44 113.85 8.46"/><polygon id="b10_bg" class="cls-2" points="150.77 8.46 150.77 41.25 187.75 41.25 187.75 11.95 176.97 11.95 176.97 .25 163.87 .25 163.87 8.44 150.77 8.46"/><polygon id="b9_bg" class="cls-2" points="187.7 8.46 187.7 41.25 224.68 41.25 224.68 11.95 213.9 11.95 213.9 .25 200.8 .25 200.8 8.44 187.7 8.46"/><polygon id="b8_bg" class="cls-2" points="261.6 8.46 261.6 41.25 224.62 41.25 224.62 11.95 235.4 11.95 235.4 .25 248.5 .25 248.5 8.44 261.6 8.46"/><polygon id="b2_bg" class="cls-2" points="77.51 50.71 39.08 50.71 39.08 86.19 52.59 86.19 52.59 93.91 75.47 93.91 75.47 86.38 88.6 86.38 88.6 64.5 77.51 64.5 77.51 50.71"/><polygon id="b3_bg" class="cls-2" points="111.27 50.71 149.7 50.71 149.7 86.19 136.19 86.19 136.19 93.91 113.31 93.91 113.31 86.38 100.18 86.38 100.18 64.5 111.27 64.5 111.27 50.71"/><polygon id="b6_bg" class="cls-2" points="222.04 50.71 260.47 50.71 260.47 86.19 246.96 86.19 246.96 93.91 224.08 93.91 224.08 86.38 210.95 86.38 210.95 64.5 222.04 64.5 222.04 50.71"/><polygon id="b5_bg" class="cls-2" points="188.28 50.71 149.85 50.71 149.85 86.19 163.36 86.19 163.36 93.91 186.24 93.91 186.24 86.38 199.37 86.38 199.37 64.5 188.28 64.5 188.28 50.71"/><polygon id="b7_bg" class="cls-2" points="252.01 41.25 252.01 50.39 260.47 50.39 260.47 76.92 281.04 76.92 281.04 62.26 289.87 62.26 289.87 46.16 298.63 46.16 298.63 25.33 291.17 25.33 291.17 18.75 271.05 18.75 271.05 11.25 261.6 11.25 261.6 41.25 252.01 41.25"/><polygon id="b13_bg" class="cls-2" points="40.26 8.46 40.26 41.25 76.98 41.25 76.98 11.95 66.28 11.95 66.28 .25 53.27 .25 53.27 8.44 40.26 8.46"/><g id="b13_text"><path class="cls-3" d="m50.84,20.45h3.16c1.74,0,2.55.92,2.55,2.05,0,.96-.55,1.58-1.18,1.79.58.18,1.45.76,1.45,1.97,0,1.55-1.18,2.41-2.74,2.41h-3.23v-8.23Zm2.95,3.42c1.19,0,1.66-.47,1.66-1.27,0-.73-.52-1.25-1.49-1.25h-2.05v2.52h1.88Zm-1.88,3.9h2.03c1.03,0,1.75-.49,1.75-1.51,0-.89-.57-1.49-1.96-1.49h-1.82v3Z"/><path class="cls-3" d="m60.66,28.68v-6.55c-.39.28-1.18.6-1.61.68v-.84c.6-.16,1.35-.6,1.89-1.11h.79v7.82h-1.06Z"/><path class="cls-3" d="m64.74,22.75c.12-.96.8-1.99,2.46-1.99s2.35.98,2.35,2.02c0,.95-.56,1.43-1.04,1.61v.03c.7.22,1.37.8,1.37,1.96,0,1.24-.77,2.44-2.7,2.44-1.79,0-2.54-1.12-2.66-2.16h1.03c.16.69.68,1.3,1.68,1.3,1.11,0,1.58-.74,1.58-1.58,0-1.03-.64-1.5-1.69-1.5h-.56v-.85h.47c1.02,0,1.46-.4,1.46-1.21,0-.7-.47-1.19-1.33-1.19-.93,0-1.28.5-1.42,1.12h-1Z"/></g><g id="b12_text"><path class="cls-3" d="m87.5,20.45h3.16c1.74,0,2.55.92,2.55,2.05,0,.96-.55,1.58-1.18,1.79.58.18,1.45.76,1.45,1.97,0,1.55-1.18,2.41-2.74,2.41h-3.23v-8.23Zm2.95,3.42c1.19,0,1.66-.47,1.66-1.27,0-.73-.52-1.25-1.49-1.25h-2.05v2.52h1.88Zm-1.88,3.9h2.03c1.03,0,1.75-.49,1.75-1.51,0-.89-.57-1.49-1.96-1.49h-1.82v3Z"/><path class="cls-3" d="m97.32,28.68v-6.55c-.39.28-1.18.6-1.61.68v-.84c.6-.16,1.35-.6,1.89-1.11h.79v7.82h-1.06Z"/><path class="cls-3" d="m101.31,28.68v-.06c0-1.12.74-2.29,2.34-3.5,1.25-.95,1.59-1.25,1.59-2.11,0-.78-.42-1.37-1.35-1.37s-1.39.49-1.55,1.44h-1.02c.14-1.32.98-2.31,2.57-2.31,1.74,0,2.42,1.12,2.42,2.21,0,1.18-.5,1.64-1.94,2.75-1.07.83-1.64,1.45-1.84,2.05h4.08l-.15.91h-5.16Z"/></g><g id="b11_text"><path class="cls-3" d="m124.94,20.45h3.16c1.74,0,2.55.92,2.55,2.05,0,.96-.55,1.58-1.18,1.79.58.18,1.45.76,1.45,1.97,0,1.55-1.18,2.41-2.74,2.41h-3.23v-8.23Zm2.95,3.42c1.19,0,1.66-.47,1.66-1.27,0-.73-.52-1.25-1.49-1.25h-2.05v2.52h1.88Zm-1.88,3.9h2.03c1.03,0,1.75-.49,1.75-1.51,0-.89-.57-1.49-1.96-1.49h-1.82v3Z"/><path class="cls-3" d="m134.77,28.68v-6.55c-.39.28-1.18.6-1.61.68v-.84c.6-.16,1.35-.6,1.89-1.11h.79v7.82h-1.06Z"/><path class="cls-3" d="m140.07,28.68v-6.55c-.39.28-1.18.6-1.61.68v-.84c.6-.16,1.35-.6,1.89-1.11h.79v7.82h-1.06Z"/></g><g id="b10_text"><path class="cls-3" d="m161.21,20.45h3.16c1.74,0,2.55.92,2.55,2.05,0,.96-.55,1.58-1.18,1.79.58.18,1.45.76,1.45,1.97,0,1.55-1.18,2.41-2.74,2.41h-3.23v-8.23Zm2.95,3.42c1.19,0,1.66-.47,1.66-1.27,0-.73-.52-1.25-1.49-1.25h-2.05v2.52h1.88Zm-1.88,3.9h2.03c1.03,0,1.75-.49,1.75-1.51,0-.89-.57-1.49-1.96-1.49h-1.82v3Z"/><path class="cls-3" d="m171.04,28.68v-6.55c-.39.28-1.18.6-1.61.68v-.84c.6-.16,1.35-.6,1.89-1.11h.79v7.82h-1.06Z"/><path class="cls-3" d="m180.49,24.73c0,1.93-.55,4.09-2.72,4.09s-2.72-2.02-2.72-4.03.64-4.03,2.75-4.03,2.69,1.99,2.69,3.98Zm-4.34.05c0,1.48.26,3.15,1.62,3.15s1.62-1.59,1.62-3.2c0-1.5-.26-3.1-1.58-3.1s-1.66,1.44-1.66,3.15Z"/></g><g id="b9_text"><path class="cls-3" d="m201.02,20.45h3.16c1.74,0,2.55.92,2.55,2.05,0,.96-.55,1.58-1.18,1.79.58.18,1.45.76,1.45,1.97,0,1.55-1.18,2.41-2.74,2.41h-3.23v-8.23Zm2.95,3.42c1.19,0,1.66-.47,1.66-1.27,0-.73-.52-1.25-1.49-1.25h-2.05v2.52h1.88Zm-1.88,3.9h2.03c1.03,0,1.75-.49,1.75-1.51,0-.89-.57-1.49-1.96-1.49h-1.82v3Z"/><path class="cls-3" d="m210.46,26.97c.22.64.62.97,1.39.97,1.51,0,1.64-2.05,1.67-3.03-.37.65-1.04.93-1.86.93-1.46,0-2.38-1.05-2.38-2.48s.95-2.61,2.62-2.61c1.94,0,2.66,1.52,2.66,3.58s-.43,4.46-2.76,4.46c-1.56,0-2.22-.92-2.41-1.83h1.07Zm-.11-3.64c0,1,.57,1.64,1.49,1.64,1.08,0,1.57-.56,1.57-1.6,0-.48-.18-1.74-1.54-1.74-1.06,0-1.52.75-1.52,1.7Z"/></g><g id="b8_text"><path class="cls-3" d="m236.9,20.45h3.16c1.74,0,2.55.92,2.55,2.05,0,.96-.55,1.58-1.18,1.79.58.18,1.45.76,1.45,1.97,0,1.55-1.18,2.41-2.74,2.41h-3.23v-8.23Zm2.95,3.42c1.19,0,1.66-.47,1.66-1.27,0-.73-.52-1.25-1.49-1.25h-2.05v2.52h1.88Zm-1.88,3.9h2.03c1.03,0,1.75-.49,1.75-1.51,0-.89-.57-1.49-1.96-1.49h-1.82v3Z"/><path class="cls-3" d="m245.18,26.48c0-1.1.74-1.73,1.41-1.99-.68-.33-1.08-.87-1.08-1.65,0-1.2.85-2.08,2.45-2.08,1.46,0,2.36.86,2.36,2.06,0,.83-.45,1.38-1.08,1.62.73.24,1.39.97,1.39,2.01,0,1.49-1.15,2.38-2.77,2.38-1.51,0-2.67-.9-2.67-2.34Zm4.38-.04c0-.99-.63-1.51-1.66-1.51-1.14,0-1.66.65-1.66,1.5s.61,1.53,1.67,1.53c.97,0,1.65-.52,1.65-1.53Zm-3.02-3.6c0,.66.42,1.21,1.41,1.21.93,0,1.35-.45,1.35-1.18,0-.68-.43-1.25-1.37-1.25-.99,0-1.39.5-1.39,1.22Z"/></g><g id="b5_text"><path class="cls-3" d="m165.95,70.12h3.16c1.74,0,2.55.92,2.55,2.05,0,.96-.55,1.58-1.18,1.79.57.18,1.45.76,1.45,1.97,0,1.55-1.18,2.41-2.74,2.41h-3.23v-8.23Zm2.95,3.42c1.19,0,1.66-.47,1.66-1.27,0-.73-.52-1.25-1.49-1.25h-2.05v2.52h1.88Zm-1.88,3.9h2.03c1.03,0,1.75-.49,1.75-1.51,0-.89-.57-1.49-1.96-1.49h-1.82v3Z"/><path class="cls-3" d="m179.21,71.47h-3.25c-.07.63-.26,1.8-.34,2.22.33-.37.84-.63,1.63-.63,1.42,0,2.34.99,2.34,2.58s-.8,2.84-2.68,2.84c-1.39,0-2.4-.77-2.6-2.09h1.05c.18.71.69,1.23,1.58,1.23,1.06,0,1.58-.75,1.58-1.91,0-1.01-.42-1.77-1.5-1.77-.94,0-1.33.4-1.6,1.02l-.97-.18c.23-1.02.53-3.24.64-4.22h4.26l-.15.9Z"/></g><g id="b3_text"><path class="cls-3" d="m121,70.12h3.16c1.74,0,2.55.92,2.55,2.05,0,.96-.55,1.58-1.18,1.79.57.18,1.45.76,1.45,1.97,0,1.55-1.18,2.41-2.74,2.41h-3.23v-8.23Zm2.95,3.42c1.19,0,1.66-.47,1.66-1.27,0-.73-.52-1.25-1.49-1.25h-2.05v2.52h1.88Zm-1.88,3.9h2.03c1.03,0,1.75-.49,1.75-1.51,0-.89-.57-1.49-1.96-1.49h-1.82v3Z"/><path class="cls-3" d="m129.49,72.42c.12-.96.8-1.99,2.46-1.99s2.35.98,2.35,2.02c0,.95-.56,1.43-1.04,1.61v.03c.7.22,1.37.8,1.37,1.96,0,1.24-.77,2.44-2.7,2.44-1.79,0-2.54-1.12-2.66-2.16h1.03c.16.69.68,1.3,1.68,1.3,1.12,0,1.58-.74,1.58-1.58,0-1.03-.64-1.5-1.69-1.5h-.56v-.85h.47c1.02,0,1.46-.4,1.46-1.21,0-.7-.47-1.19-1.33-1.19-.93,0-1.28.5-1.42,1.12h-1Z"/></g><polygon id="b1_bg" class="cls-4" points="8.67 38.42 8.67 54.21 .25 54.21 .25 78.95 8.61 78.95 8.61 85 38.1 85 39.32 85 39.32 50.93 50.91 50.93 50.91 40.75 40.36 40.75 40.36 20.35 23.65 20.35 23.65 27.63 14.7 27.63 14.7 38.25 8.73 38.25 8.67 38.42"/><g id="b1_text"><path class="cls-1" d="m18.12,62.24h3.16c1.74,0,2.55.92,2.55,2.05,0,.96-.55,1.58-1.18,1.79.57.18,1.45.76,1.45,1.97,0,1.55-1.18,2.41-2.74,2.41h-3.23v-8.23Zm2.95,3.42c1.19,0,1.66-.47,1.66-1.27,0-.73-.52-1.25-1.49-1.25h-2.05v2.52h1.88Zm-1.88,3.9h2.03c1.03,0,1.75-.49,1.75-1.51,0-.89-.57-1.49-1.96-1.49h-1.82v3Z"/><path class="cls-1" d="m27.94,70.46v-6.55c-.38.28-1.18.6-1.61.68v-.84c.6-.16,1.35-.6,1.89-1.11h.79v7.82h-1.06Z"/></g><g id="b6_text"><path class="cls-3" d="m230.98,70.12h3.16c1.74,0,2.55.92,2.55,2.05,0,.96-.55,1.58-1.18,1.79.58.18,1.45.76,1.45,1.97,0,1.55-1.18,2.41-2.74,2.41h-3.23v-8.23Zm2.95,3.42c1.19,0,1.66-.47,1.66-1.27,0-.73-.52-1.25-1.49-1.25h-2.05v2.52h1.88Zm-1.88,3.9h2.03c1.03,0,1.75-.49,1.75-1.51,0-.89-.57-1.49-1.96-1.49h-1.82v3Z"/><path class="cls-3" d="m243.43,72.26c-.15-.56-.52-.99-1.31-.99-1.31,0-1.74,1.23-1.78,2.87.32-.55.9-1.08,1.97-1.08,1.51,0,2.39,1.09,2.39,2.59s-.9,2.83-2.63,2.83c-2.14,0-2.77-1.74-2.77-3.93s.7-4.13,2.86-4.13c1.58,0,2.2,1.03,2.3,1.84h-1.03Zm.2,3.47c0-.87-.34-1.8-1.53-1.8-.96,0-1.64.62-1.64,1.79,0,.64.33,1.89,1.61,1.89,1.12,0,1.57-.91,1.57-1.88Z"/></g><g id="b7_text"><path class="cls-3" d="m271.19,37.01h3.16c1.74,0,2.55.92,2.55,2.05,0,.96-.55,1.58-1.18,1.79.57.18,1.45.76,1.45,1.97,0,1.55-1.18,2.41-2.74,2.41h-3.23v-8.23Zm2.95,3.42c1.19,0,1.66-.47,1.66-1.27,0-.73-.52-1.25-1.49-1.25h-2.05v2.52h1.88Zm-1.88,3.9h2.03c1.03,0,1.75-.49,1.75-1.51,0-.89-.57-1.49-1.96-1.49h-1.82v3Z"/><path class="cls-3" d="m284.28,37.45v.85c-1.35,1.83-2.61,4.64-3.01,6.93h-1.07c.36-2.21,1.74-5.22,3-6.88h-4.02v-.91h5.11Z"/></g></g></svg>