<?xml version="1.0" encoding="UTF-8"?><svg id="_圖層_2" xmlns="http://www.w3.org/2000/svg" viewBox="0 0 300 98.2"><defs><style>.cls-1,.cls-2{fill:#fff;}.cls-3{fill:#218095;}.cls-2,.cls-4{stroke:#0e89a1;stroke-miterlimit:10;stroke-width:.48px;}.cls-4{fill:#0e89a1;}</style></defs><g id="_圖層_2-2"><polygon class="cls-2" points="88.55 90.41 133.43 90.41 134.64 87.15 164.21 87.15 165.42 90.41 247.03 90.41 247.03 89.4 254.74 89.4 254.74 32.49 44.62 32.49 44.62 87.82 88.55 87.82 88.55 90.41"/><g id="b12"><polygon id="b12_bg" class="cls-2" points="113.8 44.8 113.8 3.82 99.61 3.82 99.61 .65 92.7 .65 92.7 4.09 77.51 4.09 77.51 44.8 113.8 44.8"/><g id="b12_text"><path class="cls-3" d="m87.13,19.76h3.16c1.74,0,2.55.92,2.55,2.05,0,.96-.55,1.58-1.18,1.79.57.18,1.45.76,1.45,1.97,0,1.55-1.18,2.41-2.74,2.41h-3.23v-8.23Zm2.95,3.42c1.19,0,1.66-.47,1.66-1.27,0-.73-.52-1.25-1.49-1.25h-2.05v2.52h1.88Zm-1.88,3.91h2.03c1.03,0,1.75-.49,1.75-1.51,0-.89-.57-1.49-1.96-1.49h-1.82v3Z"/><path class="cls-3" d="m96.96,27.98v-6.55c-.39.28-1.18.6-1.61.68v-.84c.6-.16,1.35-.6,1.89-1.11h.79v7.82h-1.06Z"/><path class="cls-3" d="m100.95,27.98v-.07c0-1.12.74-2.29,2.34-3.5,1.25-.95,1.59-1.25,1.59-2.12,0-.78-.41-1.37-1.35-1.37s-1.39.49-1.55,1.44h-1.02c.14-1.32.98-2.31,2.57-2.31,1.74,0,2.42,1.12,2.42,2.21,0,1.18-.5,1.64-1.94,2.75-1.07.83-1.64,1.45-1.84,2.05h4.08l-.15.92h-5.16Z"/></g></g><g id="b13"><polygon id="b13_bg" class="cls-2" points="39.41 3.41 39.43 44.8 77.51 44.8 77.51 3.8 66.63 3.8 66.63 4.02 62.63 4.02 62.63 .65 55.69 .65 55.69 4.09 52.69 4.09 52.69 3.41 39.41 3.41"/><g id="b13_text"><path class="cls-3" d="m51.57,19.76h3.16c1.74,0,2.55.92,2.55,2.05,0,.96-.55,1.58-1.18,1.79.57.18,1.45.76,1.45,1.97,0,1.55-1.18,2.41-2.74,2.41h-3.23v-8.23Zm2.95,3.42c1.19,0,1.66-.47,1.66-1.27,0-.73-.52-1.25-1.49-1.25h-2.05v2.52h1.88Zm-1.88,3.91h2.03c1.03,0,1.75-.49,1.75-1.51,0-.89-.57-1.49-1.96-1.49h-1.82v3Z"/><path class="cls-3" d="m61.4,27.98v-6.55c-.39.28-1.18.6-1.61.68v-.84c.6-.16,1.35-.6,1.89-1.11h.79v7.82h-1.06Z"/><path class="cls-3" d="m65.48,22.05c.12-.96.8-1.99,2.46-1.99s2.35.98,2.35,2.02c0,.95-.56,1.43-1.04,1.61v.03c.7.22,1.37.8,1.37,1.96,0,1.24-.77,2.44-2.7,2.44-1.79,0-2.54-1.12-2.66-2.16h1.03c.16.69.68,1.3,1.68,1.3,1.11,0,1.58-.74,1.58-1.58,0-1.03-.64-1.5-1.69-1.5h-.56v-.85h.47c1.02,0,1.46-.4,1.46-1.21,0-.7-.47-1.19-1.33-1.19-.93,0-1.28.5-1.42,1.12h-1Z"/></g></g><g id="b11"><polygon id="b11_bg" class="cls-2" points="150.38 44.8 150.38 3.82 136.19 3.82 136.19 .65 129.29 .65 129.29 4.09 114.09 4.09 114.09 44.8 150.38 44.8"/><g id="b11_text"><path class="cls-3" d="m124.58,19.76h3.16c1.74,0,2.55.92,2.55,2.05,0,.96-.55,1.58-1.18,1.79.57.18,1.45.76,1.45,1.97,0,1.55-1.18,2.41-2.74,2.41h-3.23v-8.23Zm2.95,3.42c1.19,0,1.66-.47,1.66-1.27,0-.73-.52-1.25-1.49-1.25h-2.05v2.52h1.88Zm-1.88,3.91h2.03c1.03,0,1.75-.49,1.75-1.51,0-.89-.57-1.49-1.96-1.49h-1.82v3Z"/><path class="cls-3" d="m134.4,27.98v-6.55c-.39.28-1.18.6-1.61.68v-.84c.6-.16,1.35-.6,1.89-1.11h.79v7.82h-1.06Z"/><path class="cls-3" d="m139.7,27.98v-6.55c-.39.28-1.18.6-1.61.68v-.84c.6-.16,1.35-.6,1.89-1.11h.79v7.82h-1.06Z"/></g></g><g id="b10"><polygon id="b10_bg" class="cls-2" points="188.1 44.8 188.1 3.82 172.49 3.82 172.49 .65 165.58 .65 165.58 4.09 150.38 4.09 150.38 44.8 188.1 44.8"/><g id="b10_text"><path class="cls-3" d="m160.85,19.76h3.16c1.74,0,2.55.92,2.55,2.05,0,.96-.55,1.58-1.18,1.79.57.18,1.45.76,1.45,1.97,0,1.55-1.18,2.41-2.74,2.41h-3.23v-8.23Zm2.95,3.42c1.19,0,1.66-.47,1.66-1.27,0-.73-.52-1.25-1.49-1.25h-2.05v2.52h1.88Zm-1.88,3.91h2.03c1.03,0,1.75-.49,1.75-1.51,0-.89-.57-1.49-1.96-1.49h-1.82v3Z"/><path class="cls-3" d="m170.67,27.98v-6.55c-.39.28-1.18.6-1.61.68v-.84c.6-.16,1.35-.6,1.89-1.11h.79v7.82h-1.06Z"/><path class="cls-3" d="m180.13,24.04c0,1.93-.55,4.09-2.72,4.09s-2.72-2.02-2.72-4.03.64-4.03,2.75-4.03,2.69,1.99,2.69,3.98Zm-4.34.05c0,1.48.26,3.15,1.63,3.15s1.62-1.59,1.62-3.2c0-1.5-.26-3.1-1.58-3.1s-1.66,1.44-1.66,3.15Z"/></g></g><g id="b9"><polygon id="b9_bg" class="cls-2" points="224.39 44.8 224.39 3.82 210.2 3.82 210.2 .65 203.29 .65 203.29 4.09 188.09 4.09 188.09 44.8 224.39 44.8"/><g id="b9_text"><path class="cls-3" d="m200.66,19.76h3.16c1.74,0,2.55.92,2.55,2.05,0,.96-.55,1.58-1.18,1.79.57.18,1.45.76,1.45,1.97,0,1.55-1.18,2.41-2.74,2.41h-3.23v-8.23Zm2.95,3.42c1.19,0,1.66-.47,1.66-1.27,0-.73-.52-1.25-1.49-1.25h-2.05v2.52h1.88Zm-1.88,3.91h2.03c1.03,0,1.75-.49,1.75-1.51,0-.89-.57-1.49-1.96-1.49h-1.82v3Z"/><path class="cls-3" d="m210.09,26.28c.22.64.62.97,1.39.97,1.51,0,1.64-2.05,1.67-3.03-.37.65-1.04.93-1.86.93-1.46,0-2.38-1.05-2.38-2.48s.95-2.61,2.62-2.61c1.94,0,2.66,1.52,2.66,3.58s-.43,4.46-2.76,4.46c-1.56,0-2.22-.92-2.41-1.83h1.07Zm-.11-3.64c0,1,.57,1.64,1.49,1.64,1.08,0,1.57-.56,1.57-1.6,0-.48-.18-1.74-1.54-1.74-1.06,0-1.52.75-1.52,1.7Z"/></g></g><g id="b8"><polygon id="b8_bg" class="cls-2" points="262.47 3.54 262.47 44.64 224.39 44.64 224.39 3.82 239.3 3.82 239.3 .24 246.17 .24 246.17 4.23 249.23 4.23 249.23 3.39 262.47 3.54"/><g id="b8_text"><path class="cls-3" d="m236.53,19.76h3.16c1.74,0,2.55.92,2.55,2.05,0,.96-.55,1.58-1.18,1.79.57.18,1.45.76,1.45,1.97,0,1.55-1.18,2.41-2.74,2.41h-3.23v-8.23Zm2.95,3.42c1.19,0,1.66-.47,1.66-1.27,0-.73-.52-1.25-1.49-1.25h-2.05v2.52h1.88Zm-1.88,3.91h2.03c1.03,0,1.75-.49,1.75-1.51,0-.89-.57-1.49-1.96-1.49h-1.82v3Z"/><path class="cls-3" d="m244.81,25.78c0-1.1.74-1.73,1.41-1.99-.68-.33-1.08-.87-1.08-1.65,0-1.2.85-2.08,2.45-2.08,1.46,0,2.36.86,2.36,2.06,0,.83-.45,1.38-1.08,1.62.73.24,1.39.97,1.39,2.01,0,1.49-1.15,2.38-2.77,2.38-1.51,0-2.67-.9-2.67-2.34Zm4.38-.04c0-.99-.63-1.51-1.66-1.51-1.14,0-1.66.65-1.66,1.5s.61,1.53,1.67,1.53c.97,0,1.65-.52,1.65-1.53Zm-3.02-3.6c0,.66.42,1.21,1.41,1.21.93,0,1.35-.45,1.35-1.18,0-.68-.43-1.25-1.37-1.25-.99,0-1.39.5-1.39,1.22Z"/></g></g><g id="b5"><polygon id="b5_bg" class="cls-2" points="199.48 68.74 199.48 93.53 188.91 93.53 188.91 91.15 185.61 91.15 185.61 97.7 163.23 97.7 163.23 90.05 149.89 90.05 149.89 54.49 188.22 54.49 188.22 68.71 199.48 68.74"/><g id="b5_text"><path class="cls-3" d="m161.83,69.97h3.16c1.74,0,2.55.92,2.55,2.05,0,.96-.55,1.58-1.18,1.79.57.18,1.45.76,1.45,1.97,0,1.55-1.18,2.41-2.74,2.41h-3.23v-8.23Zm2.95,3.42c1.19,0,1.66-.47,1.66-1.27,0-.73-.52-1.25-1.49-1.25h-2.05v2.52h1.88Zm-1.88,3.9h2.03c1.03,0,1.75-.49,1.75-1.51,0-.89-.57-1.49-1.96-1.49h-1.82v3Z"/><path class="cls-3" d="m175.1,71.32h-3.25c-.07.63-.26,1.8-.34,2.22.33-.37.84-.63,1.63-.63,1.42,0,2.34.99,2.34,2.58s-.8,2.84-2.68,2.84c-1.39,0-2.4-.77-2.6-2.09h1.05c.18.71.69,1.23,1.58,1.23,1.06,0,1.58-.75,1.58-1.91,0-1.01-.42-1.77-1.5-1.77-.94,0-1.33.4-1.6,1.02l-.97-.18c.23-1.02.53-3.24.64-4.22h4.26l-.15.9Z"/></g></g><g id="b3"><polygon id="b3_bg" class="cls-2" points="111.47 54.51 149.89 54.51 149.89 90.05 136.05 90.05 136.05 97.96 113.29 97.96 113.29 92.7 110.78 92.7 110.78 94.08 100.44 94.08 100.44 68.27 110.79 68.27 111.47 54.51"/><g id="b3_text"><path class="cls-3" d="m121.22,69.97h3.16c1.74,0,2.55.92,2.55,2.05,0,.96-.55,1.58-1.18,1.79.57.18,1.45.76,1.45,1.97,0,1.55-1.18,2.41-2.74,2.41h-3.23v-8.23Zm2.95,3.42c1.19,0,1.66-.47,1.66-1.27,0-.73-.52-1.25-1.49-1.25h-2.05v2.52h1.88Zm-1.88,3.9h2.03c1.03,0,1.75-.49,1.75-1.51,0-.89-.57-1.49-1.96-1.49h-1.82v3Z"/><path class="cls-3" d="m129.71,72.26c.12-.96.8-1.99,2.46-1.99s2.35.98,2.35,2.02c0,.95-.56,1.43-1.04,1.61v.03c.7.22,1.37.8,1.37,1.96,0,1.24-.77,2.44-2.7,2.44-1.79,0-2.54-1.12-2.66-2.16h1.03c.16.69.68,1.3,1.68,1.3,1.11,0,1.58-.74,1.58-1.58,0-1.03-.64-1.5-1.69-1.5h-.56v-.85h.47c1.02,0,1.46-.4,1.46-1.21,0-.7-.47-1.19-1.33-1.19-.93,0-1.28.5-1.42,1.12h-1Z"/></g></g><g id="b2"><path id="b2_bg" class="cls-2" d="m88.55,68.73v24.79h-10.6v-2.52h-3.11v6.68h-22.29v-7.46h-13.14v-35.43s37.86.46,37.86,0,0,13.91,0,13.91l11.28.02Z"/><g id="b2_text"><path class="cls-3" d="m53.02,69.97h3.16c1.74,0,2.55.92,2.55,2.05,0,.96-.55,1.58-1.18,1.79.57.18,1.45.76,1.45,1.97,0,1.55-1.18,2.41-2.74,2.41h-3.23v-8.23Zm2.95,3.42c1.19,0,1.66-.47,1.66-1.27,0-.73-.52-1.25-1.49-1.25h-2.05v2.52h1.88Zm-1.88,3.9h2.03c1.03,0,1.75-.49,1.75-1.51,0-.89-.57-1.49-1.96-1.49h-1.82v3Z"/><path class="cls-3" d="m61.29,78.2v-.06c0-1.12.74-2.29,2.34-3.5,1.25-.95,1.59-1.25,1.59-2.11,0-.78-.41-1.37-1.35-1.37s-1.39.49-1.55,1.44h-1.02c.14-1.32.98-2.31,2.57-2.31,1.74,0,2.42,1.12,2.42,2.21,0,1.18-.5,1.64-1.94,2.75-1.07.83-1.64,1.45-1.84,2.05h4.08l-.15.91h-5.16Z"/></g></g><g id="b1"><polygon id="b1_bg" class="cls-4" points=".24 58.5 .24 78.64 1.39 78.64 1.39 82.81 8.56 82.81 8.56 89.13 26.33 89.13 26.33 92.55 39.41 92.55 39.41 54.8 50.49 54.8 50.49 44.8 39.43 44.8 39.43 24.22 23.46 24.22 23.46 31.45 14.9 31.45 14.9 42.31 8.56 42.31 8.56 58.5 .24 58.5"/><g id="b1_text"><path class="cls-1" d="m17.93,57.23h3.16c1.74,0,2.55.92,2.55,2.05,0,.96-.55,1.58-1.18,1.79.57.18,1.45.76,1.45,1.97,0,1.55-1.18,2.41-2.74,2.41h-3.23v-8.23Zm2.95,3.42c1.19,0,1.66-.47,1.66-1.27,0-.73-.52-1.25-1.49-1.25h-2.05v2.52h1.88Zm-1.88,3.9h2.03c1.03,0,1.75-.49,1.75-1.51,0-.89-.57-1.49-1.96-1.49h-1.82v3Z"/><path class="cls-1" d="m27.75,65.46v-6.55c-.39.28-1.18.6-1.61.68v-.84c.6-.16,1.35-.6,1.89-1.11h.79v7.82h-1.06Z"/></g></g><g id="b6"><polygon id="b6_bg" class="cls-2" points="221.89 54.51 221.89 68.71 211.19 68.71 211.19 93.37 221.77 93.37 221.77 91.69 224.26 91.69 224.26 97.41 247.03 97.41 247.03 89.4 260.94 89.4 260.94 54.98 221.89 54.51"/><g id="b6_text"><path class="cls-3" d="m236.53,69.97h3.16c1.74,0,2.55.92,2.55,2.05,0,.96-.55,1.58-1.18,1.79.57.18,1.45.76,1.45,1.97,0,1.55-1.18,2.41-2.74,2.41h-3.23v-8.23Zm2.95,3.42c1.19,0,1.66-.47,1.66-1.27,0-.73-.52-1.25-1.49-1.25h-2.05v2.52h1.88Zm-1.88,3.9h2.03c1.03,0,1.75-.49,1.75-1.51,0-.89-.57-1.49-1.96-1.49h-1.82v3Z"/><path class="cls-3" d="m248.98,72.11c-.15-.56-.52-.99-1.31-.99-1.31,0-1.74,1.23-1.78,2.87.32-.55.9-1.08,1.97-1.08,1.51,0,2.39,1.09,2.39,2.59s-.9,2.83-2.63,2.83c-2.14,0-2.77-1.74-2.77-3.93s.7-4.13,2.86-4.13c1.58,0,2.2,1.03,2.3,1.84h-1.03Zm.2,3.47c0-.87-.34-1.8-1.53-1.8-.96,0-1.64.62-1.64,1.79,0,.64.33,1.89,1.61,1.89,1.12,0,1.57-.91,1.57-1.88Z"/></g></g><g id="b7"><polygon id="b7_bg" class="cls-2" points="260.94 90.02 262.1 90.04 262.1 84.69 278.35 84.69 278.35 83.87 281.65 83.87 281.65 65.91 290.12 65.91 290.12 49.45 298.54 49.45 298.54 47.02 299.76 47.02 299.76 29.22 291.43 29.22 291.43 22.44 271.3 22.44 271.3 15.16 262.47 15.16 262.47 44.64 252.04 44.64 252.04 54.98 260.94 54.98 260.94 90.02"/><g id="b7_text"><path class="cls-3" d="m270.55,44.37h3.16c1.74,0,2.55.92,2.55,2.05,0,.96-.55,1.58-1.18,1.79.57.18,1.45.76,1.45,1.97,0,1.55-1.18,2.41-2.74,2.41h-3.23v-8.23Zm2.95,3.42c1.19,0,1.66-.47,1.66-1.27,0-.73-.52-1.25-1.49-1.25h-2.05v2.52h1.88Zm-1.88,3.9h2.03c1.03,0,1.75-.49,1.75-1.51,0-.89-.57-1.49-1.96-1.49h-1.82v3Z"/><path class="cls-3" d="m283.64,44.82v.85c-1.35,1.83-2.61,4.64-3.01,6.93h-1.07c.36-2.21,1.74-5.22,3-6.88h-4.02v-.91h5.11Z"/></g></g></g></svg>